<svg width="1918" height="768" viewBox="0 0 1918 768" fill="none" xmlns="http://www.w3.org/2000/svg">
<mask id="mask0_6_4" style="mask-type:luminance" maskUnits="userSpaceOnUse" x="0" y="0" width="1918" height="768">
<path d="M1917.52 0.989792H0.0220947V767.99H1917.52V0.989792Z" fill="white"/>
</mask>
<g mask="url(#mask0_6_4)">
<path d="M1957.89 115.383L-127.356 629.113L-107.541 709.544L1977.71 195.814L1957.89 115.383Z" fill="url(#paint0_linear_6_4)"/>
<path d="M1958.65 118.139L-126.6 631.869L-108.216 706.491L1977.03 192.761L1958.65 118.139Z" fill="url(#paint1_linear_6_4)"/>
<mask id="mask1_6_4" style="mask-type:luminance" maskUnits="userSpaceOnUse" x="376" y="530" width="32" height="26">
<path d="M406.992 547.631C403.771 546.25 400.703 544.639 397.788 543.029C398.939 542.645 400.166 542.185 401.316 541.725C397.865 540.267 394.644 538.503 391.652 536.663C392.649 536.356 393.723 535.972 394.72 535.512C391.652 534.208 388.968 532.674 386.59 530.833C385.363 533.518 383.675 536.202 381.605 538.733C382.678 538.657 383.752 538.503 384.826 538.35C383.062 541.418 381.068 544.409 378.69 547.324C379.917 547.17 381.144 547.017 382.448 546.864C380.684 549.702 378.69 552.463 376.466 555.224C381.298 554.764 386.13 553.92 390.885 552.846C391.039 553.537 391.192 554.227 391.422 554.917C391.576 555.531 392.189 555.914 392.879 555.684C393.57 555.531 393.953 554.917 393.8 554.303C393.647 553.613 393.493 552.923 393.263 552.233C397.942 551.005 402.62 549.471 407.146 547.707L406.992 547.631Z" fill="white"/>
</mask>
<g mask="url(#mask1_6_4)">
<path d="M376.392 547.784L406.995 540.268V555.838H376.392V547.784Z" fill="#FCFCFC"/>
<path d="M376.392 547.401L406.995 539.884V540.267L376.392 547.784V547.401Z" fill="#FCFCFC"/>
<path d="M376.392 547.017L406.995 539.5V539.884L376.392 547.401V547.017Z" fill="#FCFCFC"/>
<path d="M376.392 546.633L406.995 539.117V539.5L376.392 547.017V546.633Z" fill="#FBFBFB"/>
<path d="M376.392 546.25L406.995 538.734V539.117L376.392 546.634V546.25Z" fill="#FAFAFA"/>
<path d="M376.392 545.867L406.995 538.35V538.733L376.392 546.25V545.867Z" fill="#FAFAFA"/>
<path d="M376.392 545.483L406.995 537.966V538.35L376.392 545.867V545.483Z" fill="#F9F9F9"/>
<path d="M376.392 545.1L406.995 537.583V537.966L376.392 545.483V545.1Z" fill="#F8F8F8"/>
<path d="M376.392 544.716L406.995 537.199V537.583L376.392 545.099V544.716Z" fill="#F7F7F7"/>
<path d="M376.392 544.333L406.995 536.816V537.2L376.392 544.716V544.333Z" fill="#F7F7F7"/>
<path d="M376.392 543.949L406.995 536.432V536.816L376.392 544.333V543.949Z" fill="#F6F6F6"/>
<path d="M376.392 543.566L406.995 536.049V536.432L376.392 543.949V543.566Z" fill="#F5F5F5"/>
<path d="M376.392 543.182L406.995 535.665V536.049L376.392 543.566V543.182Z" fill="#F4F4F4"/>
<path d="M376.392 542.798L406.995 535.282V535.665L376.392 543.182V542.798Z" fill="#F3F3F3"/>
<path d="M376.392 542.415L406.995 534.898V535.282L376.392 542.799V542.415Z" fill="#F2F2F2"/>
<path d="M376.392 542.032L406.995 534.515V534.898L376.392 542.415V542.032Z" fill="#F1F1F1"/>
<path d="M376.392 541.648L406.995 534.131V534.515L376.392 542.032V541.648Z" fill="#F0F0F0"/>
<path d="M376.392 541.265L406.995 533.748V534.131L376.392 541.648V541.265Z" fill="#EFEFEF"/>
<path d="M376.392 540.881L406.995 533.364V533.748L376.392 541.265V540.881Z" fill="#EEEEEE"/>
<path d="M376.392 540.498L406.995 532.981V533.365L376.392 540.881V540.498Z" fill="#EDEDED"/>
<path d="M376.392 540.114L406.995 532.597V532.981L376.392 540.498V540.114Z" fill="#ECECEC"/>
<path d="M376.392 539.731L406.995 532.214V532.598L376.392 540.114V539.731Z" fill="#EBEBEB"/>
<path d="M376.392 539.347L406.995 531.83V532.214L376.392 539.731V539.347Z" fill="#EAEAEA"/>
<path d="M376.392 538.964L406.995 531.447V531.83L376.392 539.347V538.964Z" fill="#E8E8E8"/>
<path d="M376.392 538.58L406.995 531.064V531.447L376.392 538.964V538.58Z" fill="#E7E7E7"/>
<path d="M376.392 538.197L406.842 530.757H406.996V531.063L376.392 538.58V538.197Z" fill="#E6E6E6"/>
<path d="M376.392 537.813L405.308 530.757H406.842L376.392 538.197V537.813Z" fill="#E5E5E5"/>
<path d="M376.392 537.43L403.697 530.757H405.308L376.392 537.813V537.43Z" fill="#E4E4E4"/>
<path d="M376.392 537.046L402.163 530.757H403.697L376.392 537.43V537.046Z" fill="#E3E3E3"/>
<path d="M376.392 536.663L400.63 530.757H402.163L376.392 537.046V536.663Z" fill="#E1E1E1"/>
<path d="M376.392 536.279L399.019 530.757H400.63L376.392 536.663V536.279Z" fill="#E0E0E0"/>
<path d="M376.392 535.896L397.485 530.757H399.019L376.392 536.279V535.896Z" fill="#DFDFDF"/>
<path d="M376.392 535.512L395.951 530.757H397.485L376.392 535.896V535.512Z" fill="#DEDEDE"/>
<path d="M376.392 535.129L394.34 530.757H395.951L376.392 535.512V535.129Z" fill="#DCDCDC"/>
<path d="M376.392 534.745L392.806 530.757H394.34L376.392 535.129V534.745Z" fill="#DBDBDB"/>
<path d="M376.392 534.362L391.272 530.757H392.806L376.392 534.745V534.362Z" fill="#DADADA"/>
<path d="M376.392 533.978L389.738 530.757H391.272L376.392 534.362V533.978Z" fill="#D9D9D9"/>
<path d="M376.392 533.595L388.127 530.757H389.738L376.392 533.978V533.595Z" fill="#D7D7D7"/>
<path d="M376.392 533.211L386.593 530.757H388.127L376.392 533.595V533.211Z" fill="#D6D6D6"/>
<path d="M386.593 530.757L376.392 533.211V530.757H386.593Z" fill="#D6D6D6"/>
</g>
<path d="M7.69275 616.354L16.9735 614.053L28.862 643.429L25.7173 611.828L34.998 609.527L45.3524 651.559L39.1398 653.093L31.3164 621.263L34.231 654.244L28.7086 655.624L15.9764 625.021L23.7998 656.851L18.0473 658.309L7.69275 616.277V616.354Z" fill="white"/>
<path d="M39.9846 608.377L58.0092 603.928L59.4665 609.911L48.0382 612.749L50.7994 623.87L59.8499 621.646L61.3073 627.629L52.2567 629.853L55.4014 642.739L66.8296 639.901L68.287 645.883L50.2624 650.332L39.908 608.3L39.9846 608.377Z" fill="white"/>
<path d="M61.6091 603.085L71.4267 600.707C78.253 599.02 82.0112 601.474 83.5452 607.994L84.1589 610.601C85.2327 614.897 84.5424 618.041 81.8579 619.959V620.112C85.4628 620.342 87.3036 623.18 88.4541 627.936L90.2949 635.299C90.7551 637.37 91.2153 638.827 92.2891 640.208L85.5395 641.818C84.9259 640.821 84.5423 640.208 83.6986 636.833L81.7811 629.163C80.8607 625.251 79.4035 624.254 76.3355 625.021L74.0345 625.558L78.483 643.582L71.8869 645.193L61.5323 603.161L61.6091 603.085ZM75.0316 618.885C77.486 618.271 78.7131 616.814 77.9461 613.439L77.1792 610.218C76.4122 607.227 75.1082 606.153 72.7305 606.69L69.7392 607.457L72.6539 619.499L75.0316 618.885Z" fill="white"/>
<path d="M85.7722 597.179L95.5898 594.801C102.416 593.114 106.174 595.568 107.708 602.088L108.322 604.695C109.396 608.991 108.706 612.135 106.021 614.053V614.206C109.626 614.436 111.467 617.274 112.617 622.03L114.458 629.393C114.995 631.464 115.378 632.921 116.452 634.302L109.703 635.989C109.089 634.992 108.706 634.378 107.862 631.003L105.944 623.333C105.024 619.422 103.567 618.501 100.499 619.192L98.1976 619.729L102.646 637.753L96.05 639.364L85.6956 597.332L85.7722 597.179ZM99.1947 612.902C101.649 612.289 102.876 610.831 102.033 607.457L101.266 604.235C100.499 601.244 99.1948 600.17 96.8171 600.707L93.8257 601.474L96.7403 613.439L99.1181 612.826L99.1947 612.902Z" fill="white"/>
<path d="M120.979 614.053L107.096 591.886L114.152 590.122L122.589 604.695L123.28 587.898L129.722 586.287L127.652 612.365L132.023 630.236L125.427 631.847L121.055 613.976L120.979 614.053Z" fill="white"/>
<path d="M149.591 615.664L144.069 593.114C142.458 586.594 144.912 581.916 151.202 580.382C157.568 578.771 161.863 581.839 163.474 588.282L164.548 592.73L158.335 594.264L157.108 589.432C156.417 586.671 154.807 585.827 152.813 586.364C150.818 586.824 149.821 588.282 150.435 591.043L156.187 614.513C156.878 617.274 158.488 618.041 160.406 617.581C162.4 617.121 163.474 615.664 162.784 612.902L161.25 606.766L167.462 605.232L168.843 610.908C170.454 617.351 167.999 622.03 161.633 623.64C155.267 625.174 150.972 622.183 149.361 615.74L149.591 615.664Z" fill="white"/>
<path d="M165.003 577.62L171.599 576.01L175.818 593.114L182.874 591.35L178.656 574.246L185.252 572.635L195.606 614.666L189.01 616.277L184.331 597.409L177.275 599.173L181.954 618.041L175.357 619.652L165.003 577.62Z" fill="white"/>
<path d="M190.24 571.408L200.057 569.03C206.883 567.343 210.642 569.797 212.176 576.316L212.789 578.924C213.863 583.219 213.173 586.364 210.488 588.282V588.435C214.093 588.665 215.934 591.503 217.085 596.258L218.925 603.622C219.386 605.693 219.846 607.15 220.92 608.53L214.17 610.141C213.556 609.144 213.173 608.53 212.329 605.156L210.412 597.486C209.491 593.574 208.034 592.577 204.966 593.344L202.665 593.881L207.114 611.905L200.517 613.516L190.163 571.484L190.24 571.408ZM203.662 587.208C206.116 586.594 207.344 585.137 206.5 581.762L205.733 578.541C204.966 575.549 203.662 574.476 201.284 575.013L198.293 575.78L201.208 587.745L203.585 587.131L203.662 587.208Z" fill="white"/>
<path d="M214.401 565.502L220.997 563.891L231.351 605.923L224.755 607.533L214.401 565.502Z" fill="white"/>
<path d="M232.73 594.954L232.116 592.577L238.329 591.043L239.019 593.957C239.786 596.949 241.32 597.716 243.468 597.179C245.538 596.642 246.689 595.261 245.922 592.117C245.078 588.665 243.084 586.824 237.868 584.14C231.119 580.612 228.434 577.62 227.284 572.788C225.673 566.192 228.128 561.513 234.57 559.903C241.013 558.292 245.155 561.36 246.766 568.109L247.226 569.874L241.013 571.408L240.476 569.26C239.709 566.269 238.252 565.425 236.181 565.962C234.11 566.499 233.113 567.956 233.803 570.794C234.57 573.862 236.565 575.626 241.857 578.387C248.606 581.915 251.214 584.83 252.518 590.046C254.206 596.872 251.674 601.551 245.155 603.161C238.635 604.772 234.494 601.704 232.806 594.954H232.73Z" fill="white"/>
<path d="M254.82 561.897L247.917 563.584L246.459 557.602L266.861 552.616L268.319 558.599L261.416 560.286L270.313 596.258L263.717 597.869L254.82 561.897Z" fill="white"/>
<path d="M270.009 551.772L279.289 549.471L291.178 578.847L288.033 547.324L297.314 545.023L307.668 587.054L301.456 588.588L293.632 556.835L296.547 589.816L291.024 591.196L278.292 560.593L286.116 592.423L280.363 593.804L270.009 551.772Z" fill="white"/>
<path d="M323.7 574.399L316.106 576.24L317.027 584.753L310.891 586.288L307.362 542.568L316.336 540.344L333.517 580.688L326.921 582.299L323.776 574.322L323.7 574.399ZM321.475 568.953L313.268 548.474L315.569 570.411L321.475 568.953Z" fill="white"/>
<path d="M332.821 570.334L332.208 567.956L338.421 566.422L339.111 569.337C339.878 572.328 341.412 573.095 343.559 572.558C345.63 572.021 346.781 570.641 346.014 567.496C345.17 564.044 343.176 562.204 337.96 559.519C331.211 555.991 328.526 553 327.376 548.168C325.765 541.571 328.219 536.893 334.662 535.282C341.105 533.671 345.247 536.739 346.858 543.489L347.318 545.253L341.105 546.787L340.568 544.639C339.801 541.648 338.344 540.804 336.273 541.341C334.202 541.878 333.205 543.335 333.895 546.173C334.662 549.241 336.656 551.005 341.949 553.767C348.698 557.295 351.306 560.209 352.61 565.502C354.297 572.328 351.766 577.007 345.247 578.617C338.804 580.228 334.586 577.16 332.898 570.487L332.821 570.334Z" fill="white"/>
<path d="M428.389 513.269L445.877 508.974L447.334 514.956L436.443 517.641L439.357 529.376L447.871 527.305L449.328 533.288L440.815 535.359L445.34 553.69L438.744 555.301L428.389 513.269Z" fill="white"/>
<path d="M449.019 508.13L458.837 505.752C465.663 504.065 469.421 506.519 470.955 513.039L471.569 515.647C472.643 519.942 471.952 523.087 469.268 525.004V525.157C472.873 525.388 474.714 528.225 475.864 532.981L477.705 540.344C478.242 542.415 478.625 543.872 479.699 545.253L472.949 546.94C472.336 545.943 471.952 545.33 471.109 541.955L469.191 534.285C468.271 530.373 466.813 529.376 463.745 530.143L461.444 530.68L465.893 548.704L459.297 550.315L448.942 508.283L449.019 508.13ZM462.442 523.93C464.896 523.317 466.123 521.859 465.356 518.485L464.589 515.263C463.822 512.272 462.518 511.198 460.141 511.735L457.149 512.502L460.064 524.467L462.442 523.854V523.93Z" fill="white"/>
<path d="M480.624 534.361L475.178 512.272C473.491 505.522 476.099 500.844 482.618 499.233C489.138 497.622 493.586 500.613 495.274 507.363L500.719 529.453C502.33 536.202 499.799 540.881 493.28 542.492C486.837 544.102 482.311 541.111 480.701 534.361H480.624ZM494.2 531.447L488.601 508.514C487.834 505.522 486.223 504.679 484.152 505.216C482.081 505.752 481.008 507.21 481.775 510.201L487.45 533.134C488.217 536.126 489.828 536.969 491.899 536.432C493.97 535.896 495.044 534.438 494.277 531.447H494.2Z" fill="white"/>
<path d="M497.187 496.318L503.783 494.708L508.002 511.812L515.058 510.048L510.839 492.943L517.436 491.333L527.79 533.364L521.194 534.975L516.515 516.107L509.459 517.871L514.138 536.739L507.541 538.35L497.187 496.318Z" fill="white"/>
<path d="M522.423 490.106L540.448 485.657L541.905 491.64L530.477 494.478L533.238 505.599L542.289 503.375L543.746 509.357L534.695 511.582L537.84 524.467L549.268 521.629L550.726 527.612L532.701 532.061L522.347 490.029L522.423 490.106Z" fill="white"/>
<path d="M552.03 482.819L558.396 481.285L569.518 513.422L564.609 479.751L571.819 477.987L583.094 510.048L578.032 476.453L583.707 475.072L589.767 518.101L581.56 520.095L571.359 492.023L575.424 521.629L566.68 523.777L552.107 482.819H552.03Z" fill="white"/>
<path d="M587.004 474.229L605.029 469.78L606.486 475.763L595.058 478.601L597.819 489.722L606.869 487.498L608.327 493.48L599.276 495.705L602.421 508.59L613.849 505.752L615.306 511.735L597.282 516.184L586.927 474.152L587.004 474.229Z" fill="white"/>
<path d="M608.559 468.86L615.155 467.249L625.51 509.281L618.914 510.891L608.559 468.86Z" fill="white"/>
<path d="M620.139 466.022L626.735 464.411L630.954 481.515L638.01 479.751L633.792 462.647L640.388 461.036L650.743 503.068L644.146 504.679L639.468 485.81L632.411 487.574L637.09 506.443L630.494 508.053L620.139 466.022Z" fill="white"/>
<path d="M645.295 459.886L653.425 457.892L666.234 481.362L660.021 456.204L665.927 454.747L676.282 496.779L669.609 498.389L653.885 469.703L661.402 500.383L655.496 501.841L645.141 459.809L645.295 459.886Z" fill="white"/>
<path d="M692.391 484.123L684.798 485.964L685.718 494.478L679.582 496.012L676.054 452.293L685.028 450.068L702.209 490.412L695.613 492.023L692.468 484.046L692.391 484.123ZM690.09 478.601L681.883 458.122L684.184 480.058L690.09 478.601Z" fill="white"/>
<path d="M702.287 480.058L696.765 457.508C695.154 450.989 697.608 446.387 703.974 444.776C710.341 443.165 714.636 446.233 716.246 452.753L717.32 457.201L711.108 458.735L709.88 453.903C709.19 451.142 707.579 450.298 705.585 450.835C703.591 451.372 702.594 452.753 703.207 455.514L708.96 478.984C709.65 481.745 711.261 482.512 713.178 481.975C715.096 481.438 716.246 480.058 715.556 477.297L714.022 471.161L720.235 469.627L721.615 475.302C723.226 481.745 720.772 486.424 714.406 488.035C708.04 489.645 703.744 486.577 702.134 480.135L702.287 480.058Z" fill="white"/>
<path d="M717.7 442.091L724.296 440.481L728.514 457.585L735.571 455.821L731.352 438.717L737.948 437.106L748.303 479.138L741.707 480.748L737.028 461.88L729.972 463.644L734.65 482.512L728.054 484.123L717.7 442.091Z" fill="white"/>
<path d="M749.534 440.557L742.631 442.245L741.174 436.262L761.576 431.2L763.034 437.183L756.131 438.87L765.028 474.842L758.432 476.453L749.534 440.481V440.557Z" fill="white"/>
<path d="M764.717 430.51L782.742 426.061L784.199 432.044L772.771 434.882L775.532 446.003L784.582 443.779L786.04 449.761L776.989 451.986L780.134 464.871L791.562 462.033L793.019 468.016L774.995 472.465L764.64 430.433L764.717 430.51Z" fill="white"/>
<path d="M786.269 425.141L794.399 423.146L807.208 446.693L800.995 421.536L806.901 420.078L817.256 462.11L810.583 463.721L794.859 435.035L802.376 465.715L796.47 467.172L786.115 425.141H786.269Z" fill="white"/>
<mask id="mask2_6_4" style="mask-type:luminance" maskUnits="userSpaceOnUse" x="1262" y="312" width="32" height="26">
<path d="M1293.18 329.342C1289.96 327.962 1286.9 326.351 1283.98 324.74C1285.13 324.357 1286.36 323.897 1287.51 323.436C1284.06 321.979 1280.84 320.215 1277.84 318.374C1278.84 318.067 1279.92 317.684 1280.91 317.224C1277.84 315.92 1275.16 314.386 1272.78 312.545C1271.56 315.23 1269.87 317.914 1267.8 320.445C1268.87 320.368 1269.94 320.215 1271.02 320.062C1269.25 323.13 1267.26 326.121 1264.88 329.036C1266.11 328.882 1267.34 328.729 1268.64 328.575C1266.88 331.413 1264.88 334.175 1262.66 336.936C1267.49 336.476 1272.32 335.632 1277.08 334.558C1277.23 335.248 1277.38 335.939 1277.61 336.629C1277.77 337.243 1278.38 337.626 1279.07 337.396C1279.76 337.242 1280.15 336.629 1279.99 336.015C1279.84 335.325 1279.69 334.635 1279.46 333.944C1284.13 332.717 1288.81 331.183 1293.34 329.419L1293.18 329.342Z" fill="white"/>
</mask>
<g mask="url(#mask2_6_4)">
<path d="M1262.51 329.572L1293.19 322.056V337.549H1262.51V329.572Z" fill="#FCFCFC"/>
<path d="M1262.51 329.189L1293.19 321.672V322.056L1262.51 329.572V329.189Z" fill="#FCFCFC"/>
<path d="M1262.51 328.805L1293.19 321.289V321.672L1262.51 329.189V328.805Z" fill="#FCFCFC"/>
<path d="M1262.51 328.422L1293.19 320.905V321.289L1262.51 328.805V328.422Z" fill="#FBFBFB"/>
<path d="M1262.51 328.038L1293.19 320.522V320.905L1262.51 328.422V328.038Z" fill="#FAFAFA"/>
<path d="M1262.51 327.655L1293.19 320.138V320.522L1262.51 328.038V327.655Z" fill="#FAFAFA"/>
<path d="M1262.51 327.271L1293.19 319.755V320.138L1262.51 327.655V327.271Z" fill="#F9F9F9"/>
<path d="M1262.51 326.888L1293.19 319.371V319.755L1262.51 327.271V326.888Z" fill="#F8F8F8"/>
<path d="M1262.51 326.504L1293.19 318.988V319.371L1262.51 326.888V326.504Z" fill="#F7F7F7"/>
<path d="M1262.51 326.121L1293.19 318.604V318.988L1262.51 326.504V326.121Z" fill="#F7F7F7"/>
<path d="M1262.51 325.737L1293.19 318.221V318.604L1262.51 326.121V325.737Z" fill="#F6F6F6"/>
<path d="M1262.51 325.354L1293.19 317.837V318.221L1262.51 325.737V325.354Z" fill="#F5F5F5"/>
<path d="M1262.51 324.97L1293.19 317.454V317.837L1262.51 325.354V324.97Z" fill="#F4F4F4"/>
<path d="M1262.51 324.587L1293.19 317.07V317.454L1262.51 324.97V324.587Z" fill="#F3F3F3"/>
<path d="M1262.51 324.203L1293.19 316.687V317.07L1262.51 324.587V324.203Z" fill="#F2F2F2"/>
<path d="M1262.51 323.82L1293.19 316.303V316.687L1262.51 324.203V323.82Z" fill="#F1F1F1"/>
<path d="M1262.51 323.436L1293.19 315.92V316.303L1262.51 323.82V323.436Z" fill="#F0F0F0"/>
<path d="M1262.51 323.053L1293.19 315.536V315.92L1262.51 323.436V323.053Z" fill="#EFEFEF"/>
<path d="M1262.51 322.669L1293.19 315.153V315.536L1262.51 323.053V322.669Z" fill="#EEEEEE"/>
<path d="M1262.51 322.286L1293.19 314.769V315.153L1262.51 322.669V322.286Z" fill="#EDEDED"/>
<path d="M1262.51 321.902L1293.19 314.386V314.769L1262.51 322.286V321.902Z" fill="#ECECEC"/>
<path d="M1262.51 321.519L1293.19 314.002V314.386L1262.51 321.902V321.519Z" fill="#EBEBEB"/>
<path d="M1262.51 321.135L1293.19 313.542V314.002L1262.51 321.519V321.135Z" fill="#EAEAEA"/>
<path d="M1262.51 320.752L1293.19 313.159V313.542L1262.51 321.135V320.752Z" fill="#E8E8E8"/>
<path d="M1262.51 320.369L1293.19 312.775V313.159L1262.51 320.752V320.369Z" fill="#E7E7E7"/>
<path d="M1262.51 319.985L1293.04 312.468H1293.19V312.775L1262.51 320.368V319.985Z" fill="#E6E6E6"/>
<path d="M1262.51 319.601L1291.42 312.468H1293.04L1262.51 319.985V319.601Z" fill="#E5E5E5"/>
<path d="M1262.51 319.218L1289.89 312.468H1291.42L1262.51 319.601V319.218Z" fill="#E4E4E4"/>
<path d="M1262.51 318.834L1288.36 312.468H1289.89L1262.51 319.218V318.834Z" fill="#E3E3E3"/>
<path d="M1262.51 318.451L1286.75 312.468H1288.36L1262.51 318.834V318.451Z" fill="#E1E1E1"/>
<path d="M1262.51 318.067L1285.21 312.468H1286.75L1262.51 318.451V318.067Z" fill="#E0E0E0"/>
<path d="M1262.51 317.684L1283.68 312.468H1285.21L1262.51 318.067V317.684Z" fill="#DFDFDF"/>
<path d="M1262.51 317.3L1282.07 312.468H1283.68L1262.51 317.684V317.3Z" fill="#DEDEDE"/>
<path d="M1262.51 316.917L1280.53 312.468H1282.07L1262.51 317.3V316.917Z" fill="#DCDCDC"/>
<path d="M1262.51 316.533L1279 312.468H1280.53L1262.51 316.917V316.533Z" fill="#DBDBDB"/>
<path d="M1262.51 316.15L1277.47 312.468H1279L1262.51 316.533V316.15Z" fill="#DADADA"/>
<path d="M1262.51 315.766L1275.85 312.468H1277.47L1262.51 316.15V315.766Z" fill="#D9D9D9"/>
<path d="M1262.51 315.383L1274.32 312.468H1275.85L1262.51 315.766V315.383Z" fill="#D7D7D7"/>
<path d="M1262.51 314.999L1272.79 312.468H1274.32L1262.51 315.383V314.999Z" fill="#D6D6D6"/>
<path d="M1272.79 312.468L1262.51 314.999V312.468H1272.79Z" fill="#D6D6D6"/>
</g>
<path d="M893.885 398.066L903.166 395.765L915.054 425.141L911.909 393.617L921.19 391.316L931.545 433.348L925.332 434.882L917.508 403.051L920.423 436.032L914.901 437.413L902.168 406.809L909.992 438.64L904.239 440.021L893.885 397.989V398.066Z" fill="white"/>
<path d="M926.177 390.166L944.201 385.717L945.659 391.7L934.23 394.537L936.991 405.659L946.042 403.435L947.499 409.417L938.449 411.642L941.593 424.527L953.022 421.689L954.479 427.672L936.455 432.12L926.1 390.089L926.177 390.166Z" fill="white"/>
<path d="M947.727 384.873L957.544 382.496C964.37 380.808 968.129 383.263 969.663 389.782L970.276 392.39C971.35 396.685 970.66 399.83 967.975 401.747V401.901C971.58 402.131 973.421 404.969 974.572 409.724L976.412 417.087C976.873 419.158 977.333 420.616 978.407 421.996L971.657 423.607C971.043 422.61 970.66 421.996 969.816 418.621L967.899 410.951C966.978 407.04 965.521 406.043 962.453 406.81L960.152 407.346L964.601 425.371L958.004 426.982L947.65 384.95L947.727 384.873ZM961.149 400.597C963.603 399.983 964.831 398.526 964.064 395.151L963.297 391.93C962.53 388.938 961.226 387.865 958.848 388.402L955.857 389.169L958.771 401.21L961.149 400.597Z" fill="white"/>
<path d="M971.964 378.891L981.782 376.513C988.608 374.826 992.367 377.28 993.901 383.8L994.514 386.407C995.588 390.703 994.898 393.847 992.213 395.765V395.918C995.818 396.148 997.659 398.986 998.809 403.742L1000.65 411.105C1001.19 413.176 1001.57 414.633 1002.64 416.013L995.895 417.701C995.281 416.704 994.898 416.09 994.054 412.715L992.136 405.045C991.216 401.134 989.759 400.137 986.691 400.904L984.39 401.441L988.838 419.465L982.242 421.076L971.888 379.044L971.964 378.891ZM985.387 394.691C987.841 394.077 989.069 392.62 988.225 389.245L987.458 386.024C986.691 383.032 985.387 381.959 983.009 382.496L980.018 383.263L982.932 395.305L985.31 394.691H985.387Z" fill="white"/>
<path d="M1007.1 395.841L993.212 373.675L1000.27 371.911L1008.71 386.484L1009.4 369.687L1015.84 368.076L1013.77 394.154L1018.14 412.025L1011.54 413.636L1007.17 395.765L1007.1 395.841Z" fill="white"/>
<path d="M1035.78 397.452L1030.26 374.902C1028.65 368.383 1031.1 363.781 1037.39 362.17C1043.76 360.636 1048.06 363.627 1049.67 370.147L1050.74 374.596L1044.53 376.13L1043.3 371.297C1042.61 368.536 1041 367.693 1039 368.229C1037.01 368.766 1036.01 370.147 1036.63 372.908L1042.38 396.378C1043.07 399.14 1044.68 399.907 1046.6 399.37C1048.52 398.833 1049.67 397.452 1048.98 394.691L1047.44 388.555L1053.65 387.021L1055.03 392.697C1056.65 399.14 1054.19 403.818 1047.83 405.429C1041.46 406.963 1037.16 403.972 1035.55 397.529L1035.78 397.452Z" fill="white"/>
<path d="M1051.19 359.409L1057.79 357.798L1062.01 374.902L1069.07 373.138L1064.85 356.034L1071.44 354.423L1081.8 396.455L1075.2 398.066L1070.52 379.197L1063.47 380.962L1068.14 399.83L1061.55 401.441L1051.19 359.409Z" fill="white"/>
<path d="M1076.43 353.196L1086.25 350.818C1093.07 349.131 1096.83 351.585 1098.37 358.105L1098.98 360.713C1100.05 365.008 1099.36 368.153 1096.68 370.07V370.224C1100.28 370.454 1102.13 373.292 1103.28 378.047L1105.12 385.41C1105.58 387.481 1106.04 388.938 1107.11 390.319L1100.36 392.006C1099.75 391.009 1099.36 390.396 1098.52 387.021L1096.6 379.351C1095.68 375.439 1094.23 374.442 1091.16 375.209L1088.86 375.746L1093.3 393.771L1086.71 395.381L1076.35 353.35L1076.43 353.196ZM1089.85 368.996C1092.31 368.383 1093.53 366.925 1092.69 363.551L1091.92 360.329C1091.16 357.338 1089.85 356.264 1087.48 356.801L1084.48 357.568L1087.4 369.61L1089.78 368.996H1089.85Z" fill="white"/>
<path d="M1100.59 347.214L1107.19 345.603L1117.54 387.634L1110.95 389.245L1100.59 347.214Z" fill="white"/>
<path d="M1118.85 376.743L1118.23 374.365L1124.45 372.831L1125.14 375.746C1125.9 378.737 1127.44 379.504 1129.58 378.967C1131.66 378.43 1132.81 377.05 1132.04 373.905C1131.2 370.454 1129.2 368.613 1123.99 365.928C1117.24 362.4 1114.55 359.409 1113.4 354.577C1111.79 347.981 1114.25 343.302 1120.69 341.691C1127.13 340.08 1131.27 343.148 1132.88 349.898L1133.34 351.662L1127.13 353.196L1126.59 351.049C1125.83 348.057 1124.37 347.214 1122.3 347.75C1120.23 348.287 1119.23 349.745 1119.92 352.583C1120.69 355.651 1122.68 357.415 1127.97 360.176C1134.72 363.704 1137.33 366.619 1138.64 371.911C1140.32 378.737 1137.79 383.416 1131.27 385.027C1124.75 386.637 1120.61 383.569 1118.92 376.896L1118.85 376.743Z" fill="white"/>
<path d="M1140.94 343.685L1134.03 345.373L1132.58 339.39L1152.98 334.405L1154.44 340.387L1147.53 342.075L1156.43 378.047L1149.83 379.658L1140.94 343.685Z" fill="white"/>
<path d="M1156.2 333.561L1165.48 331.26L1177.37 360.636L1174.23 329.112L1183.51 326.811L1193.86 368.843L1187.65 370.377L1179.82 338.547L1182.74 371.528L1177.22 372.908L1164.48 342.305L1172.31 374.135L1166.56 375.516L1156.2 333.484V333.561Z" fill="white"/>
<path d="M1209.89 356.187L1202.3 358.028L1203.22 366.542L1197.08 368.076L1193.55 324.357L1202.53 322.133L1219.71 362.477L1213.11 364.088L1209.97 356.111L1209.89 356.187ZM1207.67 350.665L1199.46 330.186L1201.76 352.122L1207.67 350.665Z" fill="white"/>
<path d="M1219.01 352.046L1218.4 349.668L1224.61 348.134L1225.3 351.049C1226.07 354.04 1227.6 354.807 1229.75 354.27C1231.82 353.733 1232.97 352.352 1232.21 349.208C1231.36 345.756 1229.37 343.915 1224.15 341.231C1217.4 337.703 1214.72 334.711 1213.57 329.879C1211.96 323.283 1214.41 318.604 1220.85 316.994C1227.3 315.383 1231.44 318.451 1233.05 325.201L1233.51 326.965L1227.3 328.499L1226.76 326.351C1225.99 323.36 1224.54 322.516 1222.47 323.053C1220.39 323.59 1219.4 325.047 1220.09 327.885C1220.85 330.953 1222.85 332.717 1228.14 335.478C1234.89 339.007 1237.5 341.921 1238.8 347.214C1240.49 354.04 1237.96 358.719 1231.44 360.329C1225 361.94 1220.78 358.872 1219.09 352.122L1219.01 352.046Z" fill="white"/>
<path d="M1314.51 294.981L1331.99 290.686L1333.45 296.668L1322.56 299.353L1325.47 311.088L1333.99 309.017L1335.45 315L1326.93 317.07L1331.46 335.402L1324.86 337.012L1314.51 294.981Z" fill="white"/>
<path d="M1335.22 289.919L1345.04 287.541C1351.86 285.854 1355.62 288.308 1357.15 294.827L1357.77 297.435C1358.84 301.73 1358.15 304.875 1355.47 306.793V306.946C1359.07 307.176 1360.91 310.014 1362.06 314.769L1363.9 322.133C1364.44 324.204 1364.82 325.661 1365.9 327.041L1359.15 328.729C1358.53 327.732 1358.15 327.118 1357.31 323.743L1355.39 316.073C1354.47 312.162 1353.01 311.241 1349.94 311.932L1347.64 312.468L1352.09 330.493L1345.5 332.104L1335.14 290.072L1335.22 289.919ZM1348.64 305.719C1351.09 305.105 1352.32 303.648 1351.55 300.273L1350.79 297.052C1350.02 294.06 1348.72 292.987 1346.34 293.524L1343.35 294.291L1346.26 306.256L1348.64 305.642V305.719Z" fill="white"/>
<path d="M1366.82 316.15L1361.37 294.06C1359.68 287.311 1362.29 282.632 1368.81 281.021C1375.33 279.411 1379.78 282.402 1381.47 289.152L1386.91 311.241C1388.52 317.991 1385.99 322.67 1379.47 324.28C1373.03 325.891 1368.5 322.9 1366.89 316.227L1366.82 316.15ZM1380.32 313.235L1374.72 290.302C1373.95 287.311 1372.34 286.467 1370.27 287.004C1368.2 287.541 1367.12 288.998 1367.89 291.99L1373.57 314.923C1374.33 317.914 1375.94 318.758 1378.01 318.221C1380.09 317.684 1381.16 316.227 1380.39 313.235H1380.32Z" fill="white"/>
<path d="M1383.39 278.03L1389.98 276.419L1394.2 293.524L1401.26 291.759L1397.04 274.655L1403.63 273.045L1413.99 315.076L1407.39 316.687L1402.71 297.819L1395.66 299.583L1400.34 318.451L1393.74 320.062L1383.39 278.03Z" fill="white"/>
<path d="M1408.61 271.818L1426.64 267.369L1428.1 273.352L1416.67 276.189L1419.43 287.311L1428.48 285.087L1429.94 291.069L1420.89 293.294L1424.03 306.179L1435.46 303.341L1436.92 309.324L1418.89 313.772L1408.54 271.741L1408.61 271.818Z" fill="white"/>
<path d="M1438.22 264.531L1444.59 262.997L1455.71 295.134L1450.8 261.463L1458.01 259.699L1469.29 291.836L1464.22 258.242L1469.9 256.861L1475.96 299.89L1467.75 301.884L1457.55 273.812L1461.62 303.418L1452.87 305.565L1438.3 264.608L1438.22 264.531Z" fill="white"/>
<path d="M1473.2 255.941L1491.22 251.492L1492.68 257.475L1481.25 260.312L1484.01 271.434L1493.06 269.21L1494.52 275.192L1485.47 277.417L1488.61 290.302L1500.04 287.464L1501.5 293.447L1483.47 297.895L1473.12 255.864L1473.2 255.941Z" fill="white"/>
<path d="M1494.75 250.648L1501.35 249.038L1511.7 291.069L1505.11 292.68L1494.75 250.648Z" fill="white"/>
<path d="M1506.26 247.81L1512.85 246.2L1517.07 263.304L1524.13 261.54L1519.91 244.436L1526.5 242.825L1536.86 284.856L1530.26 286.467L1525.58 267.599L1518.53 269.363L1523.21 288.231L1516.61 289.842L1506.26 247.81Z" fill="white"/>
<path d="M1531.49 241.598L1539.62 239.603L1552.43 263.074L1546.21 237.916L1552.12 236.459L1562.47 278.49L1555.8 280.101L1540.08 251.415L1547.59 282.095L1541.69 283.553L1531.33 241.521L1531.49 241.598Z" fill="white"/>
<path d="M1578.51 265.835L1570.91 267.676L1571.83 276.189L1565.7 277.723L1562.17 234.004L1571.14 231.78L1588.33 272.124L1581.73 273.735L1578.58 265.758L1578.51 265.835ZM1576.28 260.389L1568.08 239.91L1570.38 261.846L1576.28 260.389Z" fill="white"/>
<path d="M1588.4 261.847L1582.88 239.297C1581.27 232.777 1583.73 228.175 1590.09 226.565C1596.46 224.954 1600.75 228.022 1602.36 234.465L1603.44 238.913L1597.22 240.447L1596 235.615C1595.31 232.854 1593.7 232.01 1591.7 232.547C1589.71 233.084 1588.71 234.465 1589.32 237.226L1595.08 260.696C1595.77 263.457 1597.38 264.224 1599.3 263.764C1601.21 263.304 1602.36 261.847 1601.67 259.085L1600.14 252.949L1606.35 251.415L1607.73 257.091C1609.34 263.534 1606.89 268.213 1600.52 269.823C1594.16 271.434 1589.86 268.366 1588.25 261.923L1588.4 261.847Z" fill="white"/>
<path d="M1603.82 223.803L1610.41 222.192L1614.63 239.297L1621.69 237.533L1617.47 220.428L1624.07 218.818L1634.42 260.849L1627.82 262.46L1623.14 243.592L1616.09 245.356L1620.77 264.224L1614.17 265.835L1603.82 223.803Z" fill="white"/>
<path d="M1635.73 222.346L1628.82 224.033L1627.37 218.051L1647.77 213.065L1649.23 219.048L1642.32 220.735L1651.22 256.708L1644.62 258.318L1635.73 222.269V222.346Z" fill="white"/>
<path d="M1650.91 212.222L1668.93 207.773L1670.39 213.756L1658.96 216.594L1661.72 227.715L1670.77 225.491L1672.23 231.473L1663.18 233.698L1666.33 246.583L1677.75 243.745L1679.21 249.728L1661.19 254.177L1650.83 212.145L1650.91 212.222Z" fill="white"/>
<path d="M1672.47 206.929L1680.6 204.935L1693.41 228.482L1687.19 203.324L1693.1 201.867L1703.45 243.899L1696.78 245.509L1681.06 216.824L1688.57 247.504L1682.67 248.961L1672.31 206.929H1672.47Z" fill="white"/>
<path d="M1779.39 178.167L1788.67 175.866L1800.56 205.242L1797.41 173.641L1806.69 171.34L1817.05 213.372L1810.83 214.906L1803.01 183.076L1805.93 216.057L1800.4 217.437L1787.67 186.834L1795.49 218.664L1789.74 220.122L1779.39 178.09V178.167Z" fill="white"/>
<path d="M1811.68 170.19L1829.7 165.741L1831.16 171.724L1819.73 174.562L1822.49 185.683L1831.54 183.459L1833 189.442L1823.95 191.666L1827.1 204.552L1838.52 201.714L1839.98 207.696L1821.96 212.145L1811.6 170.113L1811.68 170.19Z" fill="white"/>
<path d="M1833.23 164.898L1843.05 162.52C1849.87 160.833 1853.63 163.287 1855.17 169.806L1855.78 172.414C1856.85 176.709 1856.16 179.854 1853.48 181.772V181.925C1857.08 182.155 1858.92 184.993 1860.07 189.748L1861.92 197.112C1862.38 199.183 1862.84 200.64 1863.91 202.02L1857.16 203.631C1856.55 202.634 1856.16 202.02 1855.32 198.646L1853.4 190.976C1852.48 187.064 1851.02 186.067 1847.96 186.834L1845.65 187.371L1850.1 205.395L1843.51 207.006L1833.15 164.974L1833.23 164.898ZM1846.65 180.698C1849.11 180.084 1850.33 178.627 1849.57 175.252L1848.8 172.031C1848.03 169.039 1846.73 167.966 1844.35 168.503L1841.36 169.27L1844.27 181.311L1846.65 180.698Z" fill="white"/>
<path d="M1857.39 158.992L1867.21 156.614C1874.04 154.927 1877.79 157.381 1879.33 163.9L1879.94 166.508C1881.02 170.803 1880.33 173.948 1877.64 175.866V176.019C1881.25 176.249 1883.09 179.087 1884.24 183.842L1886.08 191.206C1886.62 193.277 1887 194.734 1888.07 196.114L1881.32 197.802C1880.71 196.805 1880.33 196.191 1879.48 192.816L1877.56 185.146C1876.64 181.235 1875.19 180.314 1872.12 181.005L1869.82 181.541L1874.27 199.566L1867.67 201.177L1857.32 159.145L1857.39 158.992ZM1870.82 174.715C1873.27 174.102 1874.5 172.644 1873.65 169.269L1872.89 166.048C1872.12 163.057 1870.82 161.983 1868.44 162.52L1865.45 163.287L1868.36 175.252L1870.74 174.638L1870.82 174.715Z" fill="white"/>
<path d="M1892.6 175.866L1878.72 153.699L1885.77 151.935L1894.21 166.508L1894.9 149.711L1901.34 148.1L1899.27 174.178L1903.64 192.049L1897.05 193.66L1892.68 175.789L1892.6 175.866Z" fill="white"/>
<path d="M1921.2 177.476L1915.68 154.927C1914.07 148.407 1916.52 143.728 1922.81 142.194C1929.18 140.584 1933.48 143.652 1935.09 150.094L1936.16 154.543L1929.95 156.077L1928.72 151.245C1928.03 148.484 1926.42 147.64 1924.42 148.177C1922.43 148.637 1921.43 150.094 1922.05 152.856L1927.8 176.326C1928.49 179.087 1930.1 179.854 1932.02 179.394C1934.01 178.934 1935.09 177.476 1934.4 174.715L1932.86 168.579L1939.07 167.045L1940.46 172.721C1942.07 179.164 1939.61 183.842 1933.25 185.453C1926.88 186.987 1922.58 183.996 1920.97 177.553L1921.2 177.476Z" fill="white"/>
<path d="M1758.76 213.602C1755.53 212.222 1752.47 210.611 1749.55 209C1750.7 208.617 1751.93 208.156 1753.08 207.696C1749.63 206.239 1746.41 204.475 1743.42 202.634C1744.41 202.327 1745.49 201.944 1746.48 201.484C1743.42 200.18 1740.73 198.646 1738.35 196.805C1737.13 199.489 1735.44 202.174 1733.37 204.705C1734.44 204.628 1735.52 204.475 1736.59 204.321C1734.83 207.389 1732.83 210.381 1730.45 213.295C1731.68 213.142 1732.91 212.989 1734.21 212.835C1732.45 215.673 1730.45 218.434 1728.23 221.195C1733.06 220.735 1737.89 219.892 1742.65 218.818C1742.8 219.508 1742.96 220.198 1743.19 220.889C1743.34 221.502 1743.95 221.886 1744.64 221.656C1745.33 221.502 1745.72 220.889 1745.56 220.275C1745.41 219.585 1745.26 218.894 1745.03 218.204C1749.71 216.977 1754.38 215.443 1758.91 213.679L1758.76 213.602Z" fill="url(#paint2_linear_6_4)"/>
<path d="M873.328 433.501C870.106 432.12 867.038 430.51 864.124 428.899C865.274 428.516 866.501 428.055 867.652 427.595C864.2 426.138 860.979 424.374 857.988 422.533C858.985 422.226 860.059 421.843 861.056 421.382C857.988 420.079 855.303 418.545 852.925 416.704C851.698 419.388 850.011 422.073 847.94 424.604C849.014 424.527 850.087 424.374 851.161 424.22C849.397 427.288 847.403 430.28 845.025 433.194C846.253 433.041 847.48 432.887 848.784 432.734C847.019 435.572 845.025 438.333 842.801 441.094C847.633 440.634 852.465 439.79 857.221 438.717C857.374 439.407 857.527 440.097 857.757 440.788C857.911 441.401 858.524 441.785 859.215 441.555C859.905 441.401 860.289 440.788 860.135 440.174C859.982 439.484 859.828 438.793 859.598 438.103C864.277 436.876 868.956 435.342 873.481 433.578L873.328 433.501Z" fill="url(#paint3_linear_6_4)"/>
<path d="M1935.25 407.124L-187.75 83.0174L-200.251 164.905L1922.75 489.011L1935.25 407.124Z" fill="url(#paint4_linear_6_4)"/>
<path d="M1934.83 409.941L-188.176 85.8344L-199.775 161.808L1923.23 485.914L1934.83 409.941Z" fill="url(#paint5_linear_6_4)"/>
<mask id="mask3_6_4" style="mask-type:luminance" maskUnits="userSpaceOnUse" x="1304" y="342" width="32" height="26">
<path d="M1335.75 365.852C1333.29 363.32 1331.07 360.713 1329 358.028C1330.22 358.028 1331.53 358.105 1332.76 358.182C1330.15 355.497 1327.77 352.659 1325.78 349.821C1326.85 349.898 1327.92 349.975 1329 349.975C1326.62 347.597 1324.78 345.143 1323.32 342.535C1321.17 344.606 1318.57 346.37 1315.65 347.98C1316.65 348.287 1317.72 348.594 1318.8 348.824C1316.03 350.972 1312.97 352.966 1309.67 354.73C1310.9 355.114 1312.05 355.42 1313.27 355.727C1310.51 357.645 1307.6 359.485 1304.53 361.173C1309.21 362.553 1313.96 363.704 1318.72 364.471C1318.64 365.161 1318.49 365.852 1318.41 366.542C1318.34 367.155 1318.8 367.769 1319.49 367.846C1320.18 367.922 1320.79 367.539 1320.87 366.925C1320.94 366.235 1321.1 365.545 1321.17 364.854C1326.01 365.545 1330.84 365.928 1335.75 365.928V365.852Z" fill="white"/>
</mask>
<g mask="url(#mask3_6_4)">
<path d="M1304.6 353.963L1335.74 358.718V367.999H1304.6V353.963Z" fill="#FCFCFC"/>
<path d="M1304.6 353.58L1335.74 358.335V358.718L1304.6 353.963V353.58Z" fill="#FCFCFC"/>
<path d="M1304.6 353.196L1335.74 357.951V358.335L1304.6 353.58V353.196Z" fill="#FCFCFC"/>
<path d="M1304.6 352.813L1335.74 357.568V357.952L1304.6 353.196V352.813Z" fill="#FBFBFB"/>
<path d="M1304.6 352.429L1335.74 357.184V357.568L1304.6 352.813V352.429Z" fill="#FAFAFA"/>
<path d="M1304.6 352.046L1335.74 356.801V357.185L1304.6 352.429V352.046Z" fill="#FAFAFA"/>
<path d="M1304.6 351.662L1335.74 356.417V356.801L1304.6 352.046V351.662Z" fill="#F9F9F9"/>
<path d="M1304.6 351.279L1335.74 356.034V356.417L1304.6 351.662V351.279Z" fill="#F8F8F8"/>
<path d="M1304.6 350.895L1335.74 355.651V356.034L1304.6 351.279V350.895Z" fill="#F7F7F7"/>
<path d="M1304.6 350.512L1335.74 355.267V355.65L1304.6 350.895V350.512Z" fill="#F7F7F7"/>
<path d="M1304.6 350.128L1335.74 354.883V355.267L1304.6 350.512V350.128Z" fill="#F6F6F6"/>
<path d="M1304.6 349.821L1335.74 354.577V354.884L1304.6 350.128V349.821Z" fill="#F5F5F5"/>
<path d="M1304.6 349.438L1335.74 354.193V354.577L1304.6 349.821V349.438Z" fill="#F4F4F4"/>
<path d="M1304.6 349.054L1335.74 353.81V354.193L1304.6 349.438V349.054Z" fill="#F3F3F3"/>
<path d="M1304.6 348.671L1335.74 353.426V353.81L1304.6 349.054V348.671Z" fill="#F2F2F2"/>
<path d="M1304.6 348.287L1335.74 353.043V353.426L1304.6 348.671V348.287Z" fill="#F1F1F1"/>
<path d="M1304.6 347.904L1335.74 352.659V353.043L1304.6 348.287V347.904Z" fill="#F0F0F0"/>
<path d="M1304.6 347.52L1335.74 352.276V352.659L1304.6 347.904V347.52Z" fill="#EFEFEF"/>
<path d="M1304.6 347.137L1335.74 351.892V352.276L1304.6 347.52V347.137Z" fill="#EEEEEE"/>
<path d="M1304.6 346.753L1335.74 351.509V351.892L1304.6 347.137V346.753Z" fill="#EDEDED"/>
<path d="M1304.6 346.37L1335.74 351.125V351.509L1304.6 346.753V346.37Z" fill="#ECECEC"/>
<path d="M1304.6 345.986L1335.74 350.742V351.125L1304.6 346.37V345.986Z" fill="#EBEBEB"/>
<path d="M1304.6 345.679L1335.74 350.435V350.742L1304.6 345.986V345.679Z" fill="#EAEAEA"/>
<path d="M1304.6 345.296L1335.74 350.051V350.435L1304.6 345.679V345.296Z" fill="#E8E8E8"/>
<path d="M1304.6 344.913L1335.74 349.668V350.051L1304.6 345.296V344.913Z" fill="#E7E7E7"/>
<path d="M1304.6 344.529L1335.74 349.284V349.668L1304.6 344.913V344.529Z" fill="#E6E6E6"/>
<path d="M1304.6 344.146L1335.74 348.901V349.284L1304.6 344.529V344.146Z" fill="#E5E5E5"/>
<path d="M1304.6 343.762L1335.74 348.517V348.901L1304.6 344.145V343.762Z" fill="#E4E4E4"/>
<path d="M1304.6 343.378L1335.74 348.134V348.517L1304.6 343.762V343.378Z" fill="#E3E3E3"/>
<path d="M1304.6 342.995L1335.74 347.75V348.134L1304.6 343.378V342.995Z" fill="#E1E1E1"/>
<path d="M1304.6 342.612L1335.74 347.367V347.75L1304.6 342.995V342.612Z" fill="#E0E0E0"/>
<path d="M1306.06 342.458L1335.74 346.983V347.367L1304.6 342.611V342.458H1306.06Z" fill="#DFDFDF"/>
<path d="M1308.6 342.458L1335.75 346.6V346.983L1306.06 342.458H1308.6Z" fill="#DEDEDE"/>
<path d="M1311.04 342.458L1335.74 346.216V346.6L1308.59 342.458H1311.04Z" fill="#DCDCDC"/>
<path d="M1313.5 342.458L1335.74 345.91V346.216L1311.05 342.458H1313.5Z" fill="#DBDBDB"/>
<path d="M1315.96 342.458L1335.74 345.526V345.91L1313.5 342.458H1315.96Z" fill="#DADADA"/>
<path d="M1318.41 342.458L1335.75 345.143V345.526L1315.96 342.458H1318.41Z" fill="#D9D9D9"/>
<path d="M1320.94 342.458L1335.74 344.759V345.143L1318.41 342.458H1320.94Z" fill="#D7D7D7"/>
<path d="M1323.39 342.458L1335.74 344.376V344.759L1320.94 342.458H1323.39Z" fill="#D6D6D6"/>
<path d="M1335.75 344.376L1323.4 342.458H1335.75V344.376Z" fill="#D6D6D6"/>
</g>
<path d="M10.3695 132.99L16.8123 133.987L14.7414 167.659L23.025 134.908L30.3115 135.982L28.4707 169.73L36.6009 136.979L42.3534 137.822L31.5387 179.624L23.2551 178.32L24.6357 148.714L17.1191 177.4L8.29858 176.019L10.4462 132.914L10.3695 132.99Z" fill="white"/>
<path d="M45.7287 138.359L63.9066 141.12L62.9862 147.18L51.4812 145.416L49.7938 156.614L58.9211 157.994L58.0007 164.054L48.8734 162.673L46.8792 175.712L58.3842 177.476L57.4638 183.536L39.2859 180.774L45.7287 138.359Z" fill="white"/>
<path d="M62.0662 173.948L65.441 151.628C66.5148 144.802 70.5032 141.504 77.0227 142.501C83.5422 143.498 86.3801 147.87 85.3063 154.696L84.7694 158.301L78.48 157.381L79.0936 153.316C79.5538 150.248 78.4033 148.944 76.2557 148.637C74.1081 148.33 72.6508 149.251 72.1906 152.319L68.6624 175.559C68.2022 178.627 69.3527 179.854 71.5003 180.238C73.6479 180.544 75.1052 179.701 75.5654 176.633L76.8693 168.349L73.5712 167.812L74.4916 161.753L84.1558 163.21L82.0082 177.093C81.0111 183.919 76.946 187.217 70.4265 186.22C63.907 185.223 61.0691 180.851 62.1429 174.025L62.0662 173.948Z" fill="white"/>
<path d="M91.2912 145.262L109.469 148.024L108.549 154.083L97.0437 152.319L95.3563 163.517L104.484 164.898L103.563 170.957L94.4359 169.576L92.4417 182.615L103.947 184.379L103.026 190.439L84.8484 187.677L91.2912 145.262Z" fill="white"/>
<path d="M113.067 148.637L121.351 149.864L124.189 176.326L128.024 150.938L134.006 151.859L127.563 194.274L120.814 193.277L117.286 161.063L112.53 192.049L106.548 191.129L112.99 148.714L113.067 148.637Z" fill="white"/>
<path d="M147.05 153.853L153.493 154.85L151.422 188.521L159.705 155.77L166.992 156.844L165.151 190.592L173.281 157.841L179.034 158.685L168.296 200.486L160.012 199.182L161.393 169.576L153.876 198.262L145.056 196.881L147.203 153.776L147.05 153.853Z" fill="white"/>
<path d="M182.41 159.222L200.588 161.983L199.668 168.042L188.163 166.278L186.475 177.476L195.602 178.857L194.682 184.916L185.555 183.536L183.561 196.575L195.066 198.339L194.145 204.398L175.967 201.637L182.41 159.222Z" fill="white"/>
<path d="M204.192 162.52L210.865 163.517L204.422 205.932L197.749 204.935L204.192 162.52Z" fill="white"/>
<path d="M215.847 164.284L222.52 165.281L219.912 182.538L227.045 183.612L229.653 166.355L236.326 167.352L229.883 209.767L223.21 208.77L226.125 189.672L218.992 188.598L216.077 207.696L209.404 206.699L215.847 164.284Z" fill="white"/>
<path d="M241.315 168.196L249.598 169.423L252.436 195.808L256.271 170.42L262.177 171.34L255.734 213.755L248.985 212.758L245.457 180.544L240.701 211.531L234.795 210.611L241.238 168.196H241.315Z" fill="white"/>
<path d="M275.214 208.31L267.544 207.159L265.089 215.289L258.877 214.369L272.299 172.951L281.35 174.332L281.81 217.821L275.137 216.823L275.29 208.31H275.214ZM275.29 202.404L275.521 180.544L269.308 201.483L275.29 202.404Z" fill="white"/>
<path d="M285.875 208.386L289.327 185.606C290.324 179.087 294.312 175.712 300.755 176.709C307.198 177.706 309.959 182.078 308.962 188.598L308.272 193.046L301.982 192.126L302.749 187.217C303.209 184.456 301.982 183.075 299.988 182.769C297.994 182.462 296.46 183.382 296.076 186.22L292.471 209.92C292.011 212.758 293.238 213.985 295.233 214.292C297.227 214.599 298.761 213.679 299.144 210.917L300.065 204.705L306.354 205.702L305.51 211.378C304.513 217.897 300.525 221.272 294.082 220.275C287.639 219.278 284.878 214.906 285.875 208.386Z" fill="white"/>
<path d="M314.411 179.394L321.084 180.391L318.476 197.648L325.609 198.722L328.217 181.465L334.89 182.462L328.447 224.877L321.774 223.88L324.689 204.781L317.556 203.708L314.641 222.806L307.968 221.809L314.411 179.394Z" fill="white"/>
<path d="M344.167 190.132L337.187 189.058L338.108 182.999L358.74 186.143L357.82 192.203L350.84 191.129L345.318 227.485L338.645 226.488L344.167 190.132Z" fill="white"/>
<path d="M361.959 186.604L380.137 189.365L379.216 195.424L367.711 193.66L366.024 204.858L375.151 206.239L374.231 212.298L365.103 210.918L363.109 223.957L374.614 225.721L373.694 231.78L355.516 229.019L361.959 186.604Z" fill="white"/>
<path d="M383.744 189.902L391.951 191.129L394.789 217.59L398.624 192.203L404.529 193.123L398.087 235.538L391.337 234.541L387.809 202.327L383.054 233.314L377.148 232.393L383.59 189.978L383.744 189.902Z" fill="white"/>
<path d="M417.647 195.117L424.397 196.114L423.706 230.169L433.217 197.495L439.353 198.415L426.468 239.91L417.647 238.53V195.117Z" fill="white"/>
<path d="M436.973 231.166L440.348 208.847C441.345 202.02 445.563 198.722 452.083 199.719C458.602 200.716 461.594 205.165 460.597 211.915L457.222 234.234C456.225 240.984 452.006 244.359 445.487 243.362C438.967 242.365 435.976 237.916 436.973 231.166ZM450.472 233.697L454 210.534C454.461 207.466 453.31 206.162 451.162 205.855C449.015 205.549 447.557 206.469 447.097 209.537L443.569 232.7C443.109 235.768 444.259 237.072 446.407 237.379C448.555 237.686 450.012 236.765 450.472 233.697Z" fill="white"/>
<path d="M466.659 202.557L476.093 204.015L475.787 235.462L484.914 205.318L494.271 206.776L487.828 249.191L481.539 248.27L486.448 216.133L476.554 247.503L470.954 246.66V213.755L465.969 245.893L460.14 244.972L466.583 202.557H466.659Z" fill="white"/>
<path d="M513.065 219.968L506.085 218.894L506.775 214.139C512.451 214.983 514.599 214.139 516.746 210.227L521.195 210.918L514.752 253.333L508.079 252.336L512.988 219.968H513.065Z" fill="white"/>
<path d="M521.268 244.052L524.642 221.732C525.716 214.983 529.858 211.608 536.378 212.605C542.897 213.602 545.888 218.051 544.891 224.8L541.516 247.12C540.519 253.946 536.301 257.244 529.781 256.247C523.262 255.25 520.271 250.802 521.268 244.052ZM534.767 246.506L538.295 223.343C538.755 220.275 537.605 218.971 535.457 218.664C533.31 218.357 531.852 219.278 531.392 222.346L527.864 245.509C527.404 248.577 528.554 249.881 530.702 250.188C532.849 250.495 534.307 249.574 534.767 246.506Z" fill="white"/>
<path d="M545.739 251.262L552.412 252.259L551.414 258.932L544.742 257.935L545.739 251.262Z" fill="white"/>
<path d="M572.736 218.741L582.937 220.275C589.61 221.272 592.295 225.491 591.298 232.24L588 253.716C586.926 260.542 583.091 263.687 576.418 262.69L566.217 261.156L572.66 218.741H572.736ZM577.261 256.707C579.409 257.014 580.79 256.171 581.25 253.103L584.625 231.013C585.085 228.022 584.011 226.718 581.863 226.411L578.489 225.874L573.887 256.171L577.261 256.707Z" fill="white"/>
<path d="M597.355 222.576L615.533 225.337L614.612 231.396L603.107 229.632L601.42 240.831L610.547 242.211L609.627 248.27L600.499 246.89L598.505 259.929L610.01 261.693L609.09 267.752L590.912 264.991L597.355 222.576Z" fill="white"/>
<path d="M612.391 262.153L629.418 233.621L617.683 231.857L618.603 225.797L637.548 228.712L636.628 234.618L619.6 263.15L631.949 265.068L631.029 271.127L611.547 268.136L612.467 262.23L612.391 262.153Z" fill="white"/>
<path d="M641.15 229.172L659.328 231.933L658.408 237.993L646.903 236.229L645.215 247.427L654.342 248.807L653.422 254.867L644.295 253.486L642.301 266.525L653.806 268.289L652.885 274.348L634.707 271.587L641.15 229.172Z" fill="white"/>
<path d="M662.933 232.547L672.29 234.004L671.984 265.451L681.111 235.308L690.545 236.765L684.102 279.18L677.813 278.183L682.722 246.046L672.827 277.416L667.228 276.573V243.668L662.243 275.806L656.414 274.885L662.856 232.47L662.933 232.547Z" fill="white"/>
<path d="M695.531 237.532L705.579 239.066C712.482 240.14 714.936 243.822 713.939 250.341L713.709 252.029C713.019 256.401 711.254 258.932 708.11 259.699V259.852C711.485 261.616 712.405 264.991 711.715 269.44L711.178 273.044C710.181 279.564 706.192 282.555 699.519 281.558L689.011 279.948L695.454 237.532H695.531ZM700.516 275.499C702.741 275.806 704.121 275.039 704.582 271.817L705.118 268.136C705.732 264.224 704.658 262.767 701.59 262.307L698.599 261.846L696.605 274.885L700.44 275.499H700.516ZM702.204 256.17C704.658 256.554 706.346 255.71 706.883 252.259L707.266 249.881C707.726 246.813 706.883 245.356 704.505 244.972L701.283 244.512L699.596 255.71L702.204 256.094V256.17Z" fill="white"/>
<path d="M720.074 241.214L738.252 243.975L737.331 250.034L725.826 248.27L724.139 259.469L733.266 260.849L732.346 266.908L723.218 265.528L721.224 278.567L732.729 280.331L731.809 286.39L713.631 283.629L720.074 241.214Z" fill="white"/>
<path d="M741.781 244.589L751.675 246.123C758.578 247.197 761.033 250.878 760.036 257.398L759.652 260.005C758.962 264.377 757.198 266.908 753.976 267.675C757.121 269.286 757.735 272.661 757.044 277.416L755.894 284.856C755.587 286.927 755.434 288.461 755.894 290.149L749.068 289.152C748.838 288.001 748.761 287.311 749.298 283.859L750.448 276.113C751.062 272.201 750.065 270.743 747.073 270.283L744.772 269.9L742.011 288.078L735.338 287.081L741.781 244.665V244.589ZM748.147 264.147C750.602 264.531 752.289 263.687 752.826 260.236L753.363 256.938C753.823 253.946 752.979 252.412 750.602 252.029L747.61 251.569L745.77 263.687L748.224 264.071L748.147 264.147Z" fill="white"/>
<path d="M775.991 249.804L786.038 251.338C792.941 252.412 795.396 256.094 794.399 262.613L794.169 264.301C793.478 268.673 791.714 271.204 788.569 271.971C791.944 273.888 792.865 277.186 792.174 281.712L791.637 285.317C790.64 291.836 786.652 294.827 779.979 293.83L769.471 292.22L775.914 249.804H775.991ZM780.899 287.771C783.124 288.078 784.504 287.234 784.965 284.089L785.501 280.408C786.115 276.496 785.041 275.039 781.973 274.579L778.982 274.118L776.988 287.157L780.823 287.771H780.899ZM782.587 268.443C785.041 268.826 786.729 267.982 787.266 264.608L787.649 262.23C788.109 259.239 787.265 257.705 784.888 257.321L781.666 256.861L779.979 268.059L782.587 268.443Z" fill="white"/>
<path d="M800.46 253.563L807.133 254.56L800.69 296.975L794.017 295.978L800.46 253.563Z" fill="white"/>
<path d="M806.053 287.464L806.437 285.01L812.726 285.93L812.266 288.845C811.806 291.913 812.956 293.14 815.104 293.523C817.251 293.83 818.785 292.987 819.246 289.842C819.782 286.314 818.632 283.936 814.874 279.411C810.041 273.658 808.738 269.823 809.428 264.991C810.425 258.318 814.49 254.943 821.01 255.94C827.529 256.938 830.137 261.309 829.063 268.059L828.833 269.823L822.544 268.903L822.85 266.755C823.311 263.687 822.237 262.383 820.166 262.076C818.095 261.77 816.561 262.69 816.177 265.605C815.717 268.673 816.868 271.127 820.703 275.576C825.535 281.328 826.839 285.086 825.995 290.379C824.921 297.282 820.856 300.657 814.26 299.659C807.74 298.662 805.056 294.29 806.053 287.464Z" fill="white"/>
<path d="M848.395 271.127L841.415 270.053L842.105 265.298C847.705 266.142 849.929 265.298 852.077 261.386L856.525 262.076L850.082 304.492L843.409 303.494L848.318 271.127H848.395Z" fill="white"/>
<path d="M856.755 298.739L863.428 299.736L862.431 306.409L855.758 305.412L856.755 298.739Z" fill="white"/>
<path d="M875.548 308.403L876.468 302.344C877.159 302.651 877.926 302.804 878.616 302.958C881.3 303.341 882.758 302.267 883.141 299.506L888.127 266.985L894.8 267.982L889.891 300.35C888.817 307.329 885.135 310.167 878.616 309.17C877.389 309.017 876.468 308.787 875.548 308.48V308.403Z" fill="white"/>
<path d="M907.375 304.798L899.705 303.648L897.251 311.778L891.038 310.858L904.461 269.44L913.511 270.82L913.971 314.309L907.298 313.312L907.452 304.798H907.375ZM907.452 298.892L907.682 277.033L901.469 297.972L907.452 298.892Z" fill="white"/>
<path d="M923.64 272.278L931.847 273.505L934.685 299.966L938.52 274.579L944.426 275.499L937.983 317.914L931.233 316.917L927.705 284.703L922.95 315.69L917.044 314.769L923.487 272.354L923.64 272.278Z" fill="white"/>
<path d="M944.348 308.633L949.257 276.266L955.93 277.263L950.945 310.091C950.484 313.159 951.558 314.386 953.706 314.693C955.853 314.999 957.234 314.156 957.771 311.088L962.756 278.26L969.199 279.257L964.29 311.625C963.293 318.451 959.305 321.749 952.709 320.752C946.189 319.755 943.351 315.383 944.425 308.557L944.348 308.633Z" fill="white"/>
<path d="M981.775 316.073L974.105 314.923L971.651 323.053L965.438 322.133L978.86 280.715L987.911 282.095L988.371 325.584L981.698 324.587L981.852 316.073H981.775ZM981.775 310.244L982.005 288.385L975.792 309.324L981.775 310.244Z" fill="white"/>
<path d="M997.962 283.629L1007.86 285.163C1014.76 286.237 1017.29 289.918 1016.22 296.438L1015.83 299.046C1015.14 303.418 1013.3 305.949 1010.16 306.716V306.869C1013.3 308.403 1013.92 311.701 1013.22 316.533L1012.07 323.973C1011.77 326.044 1011.61 327.578 1012.07 329.266L1005.25 328.268C1005.02 327.118 1004.94 326.428 1005.48 322.976L1006.63 315.229C1007.24 311.318 1006.25 309.86 1003.25 309.4L1000.95 309.093L998.192 327.271L991.519 326.274L997.962 283.859V283.629ZM1004.33 303.264C1006.78 303.648 1008.47 302.804 1009.01 299.353L1009.54 296.054C1010 292.986 1009.16 291.529 1006.78 291.146L1003.71 290.685L1001.87 302.804L1004.33 303.188V303.264Z" fill="white"/>
<path d="M1026.72 321.135L1030.09 298.816C1031.17 291.989 1035.16 288.691 1041.67 289.688C1048.19 290.686 1051.03 295.057 1049.96 301.884L1049.42 305.489L1043.13 304.492L1043.75 300.426C1044.21 297.358 1043.06 296.055 1040.91 295.748C1038.76 295.441 1037.3 296.361 1036.84 299.429L1033.31 322.669C1032.85 325.737 1034 326.965 1036.15 327.348C1038.3 327.732 1039.76 326.811 1040.22 323.743L1041.52 315.46L1038.22 314.923L1039.14 308.863L1048.81 310.321L1046.66 324.203C1045.66 331.03 1041.6 334.328 1035.08 333.331C1028.56 332.334 1025.72 327.962 1026.8 321.135H1026.72Z" fill="white"/>
<path d="M1055.87 292.526L1074.05 295.288L1073.13 301.347L1061.62 299.583L1059.93 310.781L1069.06 312.162L1068.14 318.221L1059.01 316.84L1057.02 329.879L1068.52 331.643L1067.6 337.703L1049.43 334.941L1055.87 292.526Z" fill="white"/>
<path d="M1071.67 328.038L1072.05 325.584L1078.34 326.581L1077.88 329.496C1077.42 332.564 1078.57 333.791 1080.72 334.174C1082.86 334.481 1084.4 333.638 1084.86 330.493C1085.4 326.965 1084.25 324.587 1080.49 320.062C1075.65 314.309 1074.35 310.474 1075.04 305.642C1076.04 298.969 1080.1 295.594 1086.62 296.591C1093.14 297.589 1095.75 301.96 1094.68 308.71L1094.45 310.474L1088.16 309.477L1088.46 307.329C1088.92 304.261 1087.93 302.958 1085.78 302.651C1083.63 302.344 1082.25 303.264 1081.79 306.179C1081.33 309.247 1082.48 311.701 1086.24 316.15C1091.07 321.902 1092.38 325.661 1091.53 330.876C1090.46 337.779 1086.39 341.154 1079.8 340.157C1073.28 339.16 1070.59 334.788 1071.59 327.962L1071.67 328.038Z" fill="white"/>
<path d="M1094.83 331.797L1098.28 309.017C1099.28 302.497 1103.26 299.123 1109.71 300.12C1116.15 301.117 1118.91 305.489 1117.91 312.008L1117.22 316.457L1110.93 315.536L1111.7 310.628C1112.16 307.866 1110.93 306.486 1108.94 306.179C1106.95 305.872 1105.41 306.793 1105.03 309.63L1101.42 333.331C1100.96 336.092 1102.19 337.396 1104.18 337.703C1106.18 338.009 1107.71 337.089 1108.1 334.328L1109.02 328.115L1115.31 329.112L1114.46 334.788C1113.47 341.308 1109.48 344.682 1103.03 343.685C1096.59 342.688 1093.83 338.316 1094.83 331.797Z" fill="white"/>
<path d="M1123.36 302.804L1130.04 303.801L1127.43 321.059L1134.56 322.132L1137.17 304.875L1143.84 305.872L1137.4 348.287L1130.73 347.29L1133.64 328.192L1126.51 327.118L1123.59 346.216L1116.92 345.219L1123.36 302.804Z" fill="white"/>
<path d="M1148.9 306.716L1155.58 307.713L1150.06 344.069L1161.02 345.756L1160.1 351.815L1142.46 349.131L1148.9 306.716Z" fill="white"/>
<path d="M1164.09 342.151L1167.46 319.831C1168.46 313.082 1172.68 309.707 1179.2 310.704C1185.72 311.701 1188.71 316.15 1187.71 322.899L1184.33 345.219C1183.34 351.969 1179.12 355.344 1172.6 354.346C1166.08 353.349 1163.09 348.901 1164.09 342.151ZM1177.59 344.606L1181.11 321.442C1181.57 318.374 1180.42 317.07 1178.28 316.763C1176.13 316.457 1174.67 317.377 1174.21 320.445L1170.68 343.608C1170.22 346.676 1171.37 347.98 1173.52 348.287C1175.67 348.594 1177.13 347.674 1177.59 344.606Z" fill="white"/>
<path d="M1187.64 345.756L1188.02 343.302L1194.31 344.299L1193.85 347.213C1193.39 350.281 1194.54 351.509 1196.69 351.892C1198.84 352.199 1200.37 351.355 1200.83 348.21C1201.37 344.682 1200.22 342.305 1196.46 337.779C1191.63 332.027 1190.32 328.192 1191.01 323.36C1192.01 316.687 1196.07 313.312 1202.59 314.309C1209.11 315.306 1211.72 319.678 1210.65 326.428L1210.42 328.192L1204.13 327.195L1204.43 325.047C1204.89 321.979 1203.9 320.675 1201.75 320.368C1199.6 320.062 1198.22 320.982 1197.76 323.897C1197.3 326.965 1198.45 329.419 1202.21 333.868C1207.04 339.62 1208.35 343.378 1207.5 348.671C1206.43 355.574 1202.36 358.948 1195.77 357.951C1189.25 356.954 1186.56 352.582 1187.56 345.756H1187.64Z" fill="white"/>
<path d="M1210.11 349.131L1210.49 346.677L1216.78 347.674L1216.32 350.588C1215.86 353.656 1217.01 354.883 1219.16 355.267C1221.31 355.574 1222.84 354.73 1223.3 351.585C1223.84 348.057 1222.69 345.679 1218.93 341.154C1214.1 335.402 1212.79 331.567 1213.48 326.735C1214.48 320.062 1218.54 316.687 1225.06 317.684C1231.58 318.681 1234.19 323.053 1233.12 329.803L1232.89 331.567L1226.6 330.57L1226.91 328.422C1227.37 325.354 1226.37 324.05 1224.22 323.743C1222.07 323.436 1220.69 324.357 1220.23 327.271C1219.77 330.339 1220.92 332.794 1224.68 337.242C1229.51 342.995 1230.82 346.753 1229.97 351.969C1228.9 358.872 1224.83 362.247 1218.24 361.25C1211.72 360.252 1209.03 355.881 1210.03 349.054L1210.11 349.131Z" fill="white"/>
<path d="M1238.72 320.368L1256.9 323.13L1255.98 329.189L1244.47 327.425L1242.79 338.623L1251.91 340.004L1250.99 346.063L1241.86 344.682L1239.87 357.721L1251.38 359.485L1250.46 365.545L1232.28 362.784L1238.72 320.368Z" fill="white"/>
<path d="M1260.51 323.743L1268.71 324.97L1271.55 351.432L1275.38 326.044L1281.29 326.965L1274.85 369.38L1268.1 368.383L1264.57 336.169L1259.81 367.155L1253.91 366.235L1260.35 323.82L1260.51 323.743Z" fill="white"/>
<path d="M1281.21 363.474L1287.88 364.471L1286.89 371.144L1280.21 370.147L1281.21 363.474Z" fill="white"/>
<path d="M1358.6 339.39L1365.05 340.387L1362.98 374.058L1371.26 341.308L1378.55 342.381L1376.71 376.129L1384.84 343.378L1390.59 344.222L1379.77 386.024L1371.49 384.72L1372.87 355.114L1365.35 383.799L1356.53 382.419L1358.68 339.313L1358.6 339.39Z" fill="white"/>
<path d="M1393.96 344.759L1412.14 347.52L1411.22 353.58L1399.72 351.815L1398.03 363.014L1407.16 364.394L1406.24 370.454L1397.11 369.073L1395.11 382.112L1406.62 383.876L1405.7 389.935L1387.52 387.174L1393.96 344.759Z" fill="white"/>
<path d="M1410.3 380.425L1413.68 358.105C1414.75 351.279 1418.74 347.981 1425.26 348.978C1431.78 349.975 1434.62 354.347 1433.54 361.173L1433.01 364.778L1426.72 363.857L1427.33 359.792C1427.79 356.724 1426.64 355.42 1424.49 355.114C1422.34 354.807 1420.89 355.727 1420.43 358.795L1416.9 382.035C1416.44 385.103 1417.59 386.331 1419.74 386.714C1421.88 387.098 1423.34 386.177 1423.8 383.109L1425.11 374.826L1421.81 374.289L1422.73 368.229L1432.39 369.687L1430.24 383.569C1429.25 390.396 1425.18 393.694 1418.66 392.697C1412.07 391.7 1409.31 387.328 1410.3 380.501V380.425Z" fill="white"/>
<path d="M1439.53 351.739L1457.7 354.5L1456.78 360.559L1445.28 358.795L1443.59 369.993L1452.72 371.374L1451.8 377.433L1442.67 376.053L1440.68 389.092L1452.18 390.856L1451.26 396.915L1433.08 394.154L1439.53 351.739Z" fill="white"/>
<path d="M1461.31 355.037L1469.59 356.264L1472.43 382.726L1476.34 357.338L1482.32 358.258L1475.88 400.673L1469.13 399.676L1465.6 367.462L1460.85 398.449L1454.87 397.529L1461.31 355.114V355.037Z" fill="white"/>
<path d="M1495.36 360.252L1501.8 361.25L1499.73 394.921L1508.02 362.17L1515.3 363.244L1513.46 396.992L1521.59 364.241L1527.35 365.085L1516.53 406.886L1508.25 405.582L1509.63 375.976L1502.11 404.662L1493.29 403.281L1495.44 360.176L1495.36 360.252Z" fill="white"/>
<path d="M1530.72 365.621L1548.9 368.383L1547.98 374.442L1536.47 372.678L1534.79 383.876L1543.91 385.257L1542.99 391.316L1533.86 389.935L1531.87 402.974L1543.38 404.738L1542.46 410.798L1524.28 408.037L1530.72 365.621Z" fill="white"/>
<path d="M1552.5 368.996L1559.18 369.993L1552.73 412.408L1546.06 411.411L1552.5 368.996Z" fill="white"/>
<path d="M1564.08 370.76L1570.76 371.757L1568.15 389.015L1575.28 390.089L1577.89 372.831L1584.56 373.828L1578.12 416.243L1571.45 415.246L1574.36 396.148L1567.23 395.074L1564.31 414.173L1557.64 413.175L1564.08 370.76Z" fill="white"/>
<path d="M1589.63 374.595L1597.83 375.823L1600.67 402.207L1604.58 376.82L1610.49 377.74L1604.05 420.155L1597.3 419.158L1593.77 386.944L1589.01 417.931L1583.11 417.01L1589.55 374.595H1589.63Z" fill="white"/>
<path d="M1623.52 414.709L1615.85 413.559L1613.4 421.689L1607.19 420.769L1620.61 379.351L1629.66 380.731L1630.12 424.22L1623.45 423.223L1623.6 414.709H1623.52ZM1623.52 408.804L1623.75 386.944L1617.54 407.883L1623.52 408.804Z" fill="white"/>
<path d="M1634.11 414.786L1637.56 392.006C1638.56 385.487 1642.55 382.112 1648.99 383.109C1655.43 384.106 1658.19 388.478 1657.2 394.998L1656.51 399.446L1650.22 398.526L1650.98 393.617C1651.37 390.856 1650.22 389.475 1648.22 389.168C1646.23 388.862 1644.7 389.782 1644.31 392.62L1640.71 416.32C1640.32 419.158 1641.47 420.385 1643.47 420.692C1645.46 420.999 1647 420.079 1647.38 417.317L1648.3 411.105L1654.59 412.102L1653.75 417.778C1652.75 424.297 1648.76 427.672 1642.32 426.675C1635.87 425.678 1633.11 421.306 1634.11 414.786Z" fill="white"/>
<path d="M1662.72 385.794L1669.39 386.791L1666.79 404.048L1673.92 405.122L1676.53 387.864L1683.2 388.862L1676.76 431.277L1670.08 430.28L1673 411.181L1665.87 410.107L1662.95 429.206L1656.28 428.209L1662.72 385.794Z" fill="white"/>
<path d="M1692.48 396.532L1685.5 395.458L1686.42 389.398L1707.05 392.543L1706.13 398.602L1699.15 397.529L1693.63 433.884L1686.95 432.887L1692.48 396.532Z" fill="white"/>
<path d="M1710.28 393.003L1728.45 395.765L1727.53 401.824L1716.03 400.06L1714.34 411.258L1723.47 412.639L1722.55 418.698L1713.42 417.317L1711.43 430.356L1722.93 432.12L1722.01 438.18L1703.83 435.418L1710.28 393.003Z" fill="white"/>
<path d="M1732.06 396.378L1740.34 397.605L1743.18 424.067L1747.09 398.679L1753 399.6L1746.55 442.015L1739.8 441.018L1736.28 408.804L1731.52 439.79L1725.62 438.87L1732.06 396.455V396.378Z" fill="white"/>
<path d="M1765.88 401.517L1772.63 402.514L1771.94 436.569L1781.45 403.895L1787.59 404.815L1774.7 446.31L1765.88 444.929V401.517Z" fill="white"/>
<path d="M1785.28 437.643L1788.66 415.323C1789.65 408.497 1793.87 405.199 1800.39 406.196C1806.91 407.193 1809.9 411.641 1808.91 418.391L1805.53 440.711C1804.53 447.46 1800.32 450.835 1793.8 449.838C1787.28 448.841 1784.29 444.392 1785.28 437.643ZM1798.78 440.097L1802.31 416.934C1802.77 413.866 1801.62 412.562 1799.47 412.255C1797.32 411.948 1795.87 412.869 1795.33 415.937L1791.8 439.1C1791.34 442.168 1792.49 443.472 1794.64 443.779C1796.79 444.086 1798.25 443.165 1798.71 440.097H1798.78Z" fill="white"/>
<path d="M1814.97 409.034L1824.4 410.491L1824.09 441.938L1833.22 411.795L1842.66 413.252L1836.21 455.667L1829.92 454.747L1834.83 422.61L1824.94 453.98L1819.34 453.136V420.232L1814.35 452.369L1808.52 451.449L1814.97 409.034Z" fill="white"/>
<path d="M1861.3 426.368L1854.32 425.294L1855.01 420.539C1860.69 421.382 1862.83 420.539 1864.98 416.627L1869.43 417.317L1862.99 459.732L1856.31 458.735L1861.22 426.368H1861.3Z" fill="white"/>
<path d="M1869.5 450.452L1872.88 428.132C1873.87 421.382 1878.09 418.008 1884.61 419.005C1891.13 420.002 1894.12 424.45 1893.13 431.2L1889.75 453.52C1888.75 460.346 1884.54 463.644 1878.02 462.647C1871.5 461.65 1868.51 457.201 1869.5 450.452ZM1883 452.983L1886.53 429.819C1886.99 426.751 1885.84 425.448 1883.69 425.141C1881.54 424.834 1880.09 425.754 1879.63 428.822L1876.1 451.986C1875.64 455.054 1876.79 456.358 1878.94 456.664C1881.08 456.971 1882.54 456.051 1883 452.983Z" fill="white"/>
<path d="M1893.97 457.661L1900.65 458.658L1899.65 465.331L1892.98 464.334L1893.97 457.661Z" fill="white"/>
<path d="M1921.04 425.217L1931.25 426.751C1937.92 427.748 1940.6 431.967 1939.61 438.717L1936.31 460.193C1935.31 467.019 1931.48 470.164 1924.8 469.166L1914.6 467.632L1921.04 425.217ZM1925.57 463.107C1927.72 463.414 1929.1 462.57 1929.56 459.502L1932.93 437.413C1933.39 434.421 1932.32 433.117 1930.17 432.811L1926.8 432.274L1922.19 462.57L1925.57 463.107Z" fill="white"/>
</g>
<defs>
<linearGradient id="paint0_linear_6_4" x1="934.287" y1="452.876" x2="914.453" y2="372.37" gradientUnits="userSpaceOnUse">
<stop stop-color="#A60000"/>
<stop offset="1" stop-color="#FC5858"/>
</linearGradient>
<linearGradient id="paint1_linear_6_4" x1="933.538" y1="449.841" x2="915.135" y2="375.144" gradientUnits="userSpaceOnUse">
<stop stop-color="#FC2D2D"/>
<stop offset="0.2" stop-color="#F32929"/>
<stop offset="0.51" stop-color="#DB1E1E"/>
<stop offset="0.9" stop-color="#B50C0C"/>
<stop offset="1" stop-color="#AB0808"/>
</linearGradient>
<linearGradient id="paint2_linear_6_4" x1="1744.62" y1="221.643" x2="1738.48" y2="196.694" gradientUnits="userSpaceOnUse">
<stop offset="0.45" stop-color="#FCFCFC"/>
<stop offset="0.66" stop-color="#F0F0F0"/>
<stop offset="1" stop-color="#D6D6D6"/>
</linearGradient>
<linearGradient id="paint3_linear_6_4" x1="859.091" y1="441.543" x2="852.944" y2="416.595" gradientUnits="userSpaceOnUse">
<stop offset="0.45" stop-color="#FCFCFC"/>
<stop offset="0.66" stop-color="#F0F0F0"/>
<stop offset="1" stop-color="#D6D6D6"/>
</linearGradient>
<linearGradient id="paint4_linear_6_4" x1="860.384" y1="326.748" x2="872.897" y2="244.785" gradientUnits="userSpaceOnUse">
<stop stop-color="#A60000"/>
<stop offset="1" stop-color="#FC5858"/>
</linearGradient>
<linearGradient id="paint5_linear_6_4" x1="860.773" y1="323.715" x2="872.395" y2="247.59" gradientUnits="userSpaceOnUse">
<stop stop-color="#FC2D2D"/>
<stop offset="0.2" stop-color="#F32929"/>
<stop offset="0.51" stop-color="#DB1E1E"/>
<stop offset="0.9" stop-color="#B50C0C"/>
<stop offset="1" stop-color="#AB0808"/>
</linearGradient>
</defs>
</svg>
