<svg width="122" height="126" viewBox="0 0 122 126" fill="none" xmlns="http://www.w3.org/2000/svg">
<path d="M3.34735 84.1865L18.2272 79.2775L13.1673 89.2485C12.9373 89.7855 12.8573 90.3215 13.0173 90.8585C13.1673 91.3955 13.5473 91.8555 14.0873 92.0865C14.6273 92.3165 15.1573 92.3925 15.6973 92.2395C16.2373 92.0865 16.6973 91.7025 16.9273 91.1655L23.8273 77.4365L31.8773 74.7515L28.8873 80.6575C28.8873 80.6575 28.2773 80.6575 27.9673 80.8115C26.9773 81.1175 26.1273 81.8845 25.6673 82.8055C25.2073 83.7255 25.1273 84.8765 25.4373 85.8735C25.7473 86.8705 26.5173 87.7145 27.4373 88.1745C28.4273 88.6345 29.5073 88.7115 30.4973 88.4045C31.4973 88.0975 32.3373 87.3305 32.7973 86.4105C33.2573 85.4895 33.3373 84.3395 33.0273 83.3425C32.9573 83.0355 32.7973 82.7285 32.6473 82.4985L37.4772 72.8345L45.5373 70.1495L43.5373 74.1385C43.3073 74.5985 43.2373 75.2125 43.3873 75.7485C43.5373 76.2855 43.9273 76.6695 44.4573 76.9765C44.9973 77.2065 45.5373 77.2825 46.0673 77.0525C46.6073 76.8995 47.0673 76.5155 47.2973 75.9795L51.2073 68.2325L53.9673 67.3115L54.8173 69.8435L57.4973 70.3795L56.8873 73.2175L49.5974 77.9735C48.8274 78.5105 48.4473 79.5075 48.7573 80.4275C48.7573 80.5815 48.9072 80.7345 48.9872 80.9645C49.2972 81.4245 49.7573 81.7315 50.2873 81.8845C50.8273 82.0385 51.4373 81.8845 51.8973 81.5785L55.6573 79.1235L53.9673 87.4075L44.9173 93.3135C44.9173 93.3135 44.3873 93.0835 44.0773 93.0065C41.9273 92.5465 39.7773 94.0035 39.3173 96.1515C39.0873 97.2245 39.3172 98.2985 39.8572 99.1425C40.4672 100.063 41.3173 100.677 42.3873 100.907C43.4673 101.137 44.5373 100.907 45.3773 100.293C46.2973 99.6795 46.9173 98.8355 47.0673 97.7615C47.0673 97.4555 47.1473 97.1485 47.0673 96.8415L52.5873 93.2365L50.9073 101.521L38.0173 109.958C37.2473 110.495 36.8673 111.492 37.1773 112.412C37.1773 112.565 37.3273 112.719 37.4073 112.872C37.7073 113.332 38.1673 113.639 38.7073 113.793C39.2473 113.946 39.8573 113.793 40.3173 113.486L49.6773 107.35L46.4573 122.69C46.4573 122.69 46.4573 123.457 46.4573 123.764C46.6873 124.454 47.2973 124.991 48.0673 125.144C48.5973 125.298 49.2173 125.144 49.6773 124.837C50.1373 124.531 50.4474 124.07 50.5974 123.534L53.8173 108.194L59.9573 117.551C60.2573 118.011 60.7173 118.318 61.3373 118.471C61.8673 118.548 62.4073 118.471 62.9473 118.165C63.9373 117.551 64.1673 116.247 63.5573 115.25L55.1172 102.364L56.8073 94.0805L60.4173 99.6025C60.4173 99.6025 60.1872 100.14 60.1072 100.447C59.6472 102.594 61.0273 104.742 63.2473 105.202C64.3273 105.432 65.3973 105.202 66.3173 104.589C67.2373 103.975 67.8573 103.131 68.0073 102.058C68.4673 99.9095 67.0872 97.7615 64.8672 97.3015C64.5572 97.3015 64.2473 97.2245 63.9373 97.3015L58.0373 88.2515L59.7272 79.9675L62.1773 83.7255C62.7873 84.7225 64.0974 84.9525 65.0974 84.3395C66.0174 83.7255 66.3173 82.4215 65.7073 81.4245L60.9473 74.1385L61.5673 71.3005L64.1673 71.8375L65.9373 69.8435L68.0873 71.7605L68.6172 80.5045C68.6172 80.5045 68.6173 80.8875 68.6973 81.0415C69.0073 81.9615 69.8474 82.5755 70.8474 82.4985C71.9974 82.4985 72.9173 81.4245 72.8373 80.2745L72.6072 75.8255L78.8973 81.4245L79.5073 92.2395C79.5073 92.2395 79.0473 92.5465 78.8173 92.8535C78.1273 93.6205 77.7473 94.6935 77.8273 95.7675C77.8273 96.8415 78.3573 97.8385 79.1273 98.5285C79.8973 99.2195 80.9673 99.6025 82.0473 99.5255C83.1173 99.5255 84.1173 98.9895 84.8073 98.2225C85.4973 97.4555 85.8773 96.3815 85.7973 95.3075C85.7273 94.2335 85.2673 93.2365 84.4973 92.5465C84.2673 92.3165 84.0372 92.1625 83.7272 92.0865L83.3474 85.4895L89.6373 91.0885L90.4772 106.506C90.4772 106.506 90.4773 106.89 90.5573 107.043C90.8673 107.963 91.7073 108.577 92.7073 108.5C93.8573 108.424 94.7773 107.427 94.6973 106.276L94.0873 95.0775L105.747 105.509C106.127 105.893 106.667 106.046 107.277 106.046C107.817 106.046 108.347 105.739 108.737 105.356C109.117 104.895 109.267 104.359 109.267 103.822C109.267 103.285 108.967 102.748 108.577 102.364L96.9273 91.9325L108.117 91.3195C109.267 91.3195 110.187 90.2455 110.117 89.0945C110.037 87.9445 109.037 87.1005 107.887 87.1005L92.4772 87.9445L86.1873 82.3455L92.7773 81.9615C92.7773 81.9615 93.0873 82.4215 93.3973 82.6515C94.1573 83.3425 95.2373 83.7255 96.3073 83.6495C97.3873 83.6495 98.3773 83.1125 99.0673 82.3455C99.7573 81.5785 100.147 80.5045 100.067 79.4305C100.067 78.3565 99.5273 77.3595 98.7673 76.6695C97.9973 75.9795 96.9274 75.5955 95.8474 75.6725C94.7774 75.6725 93.7773 76.2095 93.0873 76.9765C92.8573 77.2065 92.7073 77.5135 92.5473 77.7435L81.7372 78.3565L75.4473 72.7575L79.8973 72.5275C81.0473 72.5275 81.9673 71.4535 81.8873 70.3035C81.8173 69.1525 80.8173 68.3095 79.6673 68.3095L70.9973 68.7695L68.8474 66.8515L70.6172 64.8575L69.7673 62.3265L72.5373 61.4065L80.2773 65.3175C80.8173 65.5475 81.3573 65.6245 81.8873 65.4715C82.4273 65.3175 82.8872 64.9345 83.1172 64.3975C83.6572 63.3235 83.2673 62.0965 82.1973 61.5595L78.2073 59.5655L86.2573 56.8805L95.9273 61.7125C95.9273 61.7125 95.9273 62.3265 96.0773 62.6335C96.7673 64.7045 99.0673 65.8545 101.137 65.1645C103.217 64.4745 104.367 62.1735 103.677 60.1025C103.367 59.1055 102.597 58.2615 101.677 57.8015C100.757 57.3405 99.6072 57.2645 98.6072 57.5715C98.3072 57.6475 97.9973 57.8015 97.7673 57.9545L91.8572 54.9635L99.9173 52.2785L113.717 59.1815C114.257 59.4115 114.797 59.4885 115.327 59.3355C115.867 59.1815 116.327 58.7985 116.557 58.2615C117.097 57.1875 116.637 55.9605 115.637 55.4235L105.667 50.3615L120.547 45.4525C121.087 45.2995 121.547 44.9155 121.777 44.3785C122.007 43.8415 122.077 43.3045 121.927 42.7675C121.547 41.6945 120.397 41.0805 119.247 41.3875L104.367 46.2965L109.427 36.3255C109.657 35.7885 109.727 35.2515 109.577 34.7145C109.427 34.1775 109.037 33.7175 108.507 33.4875C107.967 33.2575 107.427 33.1805 106.897 33.3335C106.357 33.4875 105.897 33.8705 105.667 34.4075L98.7673 48.1365L90.7073 50.8215L93.6973 44.9155C93.6973 44.9155 94.3172 44.9155 94.6172 44.7625C96.6972 44.0715 97.8473 41.7705 97.1573 39.6995C96.8473 38.7025 96.0773 37.8595 95.1573 37.3985C94.2373 36.9385 93.0873 36.8625 92.0873 37.1685C91.0973 37.4755 90.2473 38.2425 89.7873 39.1635C89.3273 40.0835 89.2573 41.2335 89.5573 42.2315C89.6373 42.5375 89.7873 42.8445 89.9473 43.0745L85.1072 52.7385L77.0573 55.4235L79.0473 51.4355C79.5873 50.3615 79.1273 49.1345 78.1273 48.5975C77.0573 48.0605 75.8273 48.5205 75.2973 49.5175L71.3773 57.2645L68.6172 58.1845L67.7773 55.6535L65.1673 55.1165L65.7873 52.2785L73.0673 47.5235C74.0673 46.8335 74.2973 45.6055 73.6873 44.6085C73.3773 44.1485 72.9173 43.8415 72.3773 43.6885C71.8373 43.6115 71.2273 43.6885 70.7673 43.9955L67.0073 46.4495L68.6973 38.1655L77.7473 32.2605C77.7473 32.2605 78.2873 32.4905 78.5873 32.5665C80.7373 33.0275 82.8874 31.6465 83.3474 29.4225C83.5774 28.3485 83.3473 27.2745 82.8073 26.4305C82.1973 25.5105 81.3573 24.8965 80.2773 24.6665C79.2073 24.4365 78.1273 24.6665 77.2873 25.2035C76.3673 25.8175 75.7573 26.6605 75.5273 27.7345C75.5273 28.0415 75.5273 28.3485 75.5273 28.6555L69.9973 32.2605L71.6873 23.9765L84.5773 15.5395C85.4973 14.9255 85.7973 13.6215 85.1873 12.6245C84.8773 12.1645 84.4173 11.8575 83.8073 11.7045C83.2673 11.6275 82.6573 11.7045 82.1973 12.0115L72.8373 18.1475L76.0573 2.80754C76.2873 1.65654 75.5973 0.582533 74.4473 0.276533C73.9173 0.122533 73.2973 0.276533 72.8373 0.582533C72.3773 0.889533 72.0673 1.34952 71.9173 1.88652L68.6973 17.2265L62.5573 7.86952C62.2573 7.40952 61.7973 7.10254 61.1773 6.94954C60.6473 6.87254 60.1073 6.94954 59.5673 7.25554C58.8073 7.79254 58.4172 8.78952 58.7272 9.71052C58.7272 9.86352 58.8773 10.0175 58.9573 10.1705L67.3973 23.0565L65.7073 31.3395L62.0974 25.8175C62.0974 25.8175 62.3273 25.2805 62.4073 24.9735C62.8673 22.8255 61.4873 20.6785 59.2673 20.2185C58.1873 19.9885 57.1173 20.2185 56.2673 20.8315C55.3473 21.4455 54.7373 22.2895 54.5873 23.3625C54.1273 25.5105 55.5073 27.6585 57.6573 28.1185C57.9573 28.1185 58.2673 28.1185 58.5773 28.1185L64.4772 37.1685L62.7873 45.4525L60.3373 41.6945C59.7273 40.6975 58.4173 40.4665 57.4273 41.0805C56.6573 41.6175 56.2673 42.6145 56.5773 43.5345C56.5773 43.6885 56.7273 43.8415 56.8073 44.0715L61.5673 51.3585L60.9473 54.1965L58.3474 53.6595L56.4973 55.6535L54.3572 53.7365L53.8173 45.0685C53.7373 43.9185 52.7474 43.0745 51.5974 43.0745C50.4474 43.0745 49.5274 44.1485 49.5974 45.2995L49.8273 49.7475L43.5373 44.1485L42.9273 33.3335C42.9273 33.3335 43.3872 33.0275 43.6172 32.7205C44.3072 31.9535 44.6872 30.8795 44.6172 29.8055C44.6172 28.7315 44.0773 27.7345 43.3073 27.0445C42.5473 26.3545 41.4673 25.9705 40.3973 26.0475C39.3173 26.0475 38.3273 26.5845 37.6373 27.3515C36.9473 28.1185 36.5573 29.1925 36.6373 30.2655C36.6373 31.3395 37.1773 32.3365 37.9373 33.0275C38.1673 33.2575 38.4773 33.4105 38.7073 33.5635L39.0873 40.1605L32.7973 34.5615L31.9573 19.1445C31.8773 17.9935 30.8872 17.1505 29.7372 17.1505C28.5872 17.1505 27.6672 18.2235 27.7372 19.3745L28.3572 30.5725L16.6172 20.1415C15.8472 19.4515 14.6272 19.4515 13.8572 20.1415C13.8572 20.1415 13.7073 20.2945 13.6273 20.3715C13.0873 20.9085 12.9373 21.7525 13.1673 22.4425C13.2473 22.8255 13.4773 23.1325 13.7773 23.3625L25.4373 33.7945L14.2372 34.4075C13.0872 34.4075 12.1673 35.4815 12.2473 36.7085C12.2473 36.8625 12.2473 37.0155 12.3273 37.1685C12.6273 38.0895 13.4773 38.7025 14.4673 38.6265L29.8873 37.7055L36.1773 43.3045L29.5773 43.6885C29.5773 43.6885 29.2773 43.2285 28.9673 42.9985C28.1973 42.3075 27.1273 41.9245 26.0473 42.0005C24.9773 42.0005 23.9773 42.5375 23.2873 43.3045C21.8373 44.9925 21.9874 47.5235 23.5974 48.9805C24.3674 49.6705 25.4373 50.0545 26.5173 49.9775C27.5873 49.9775 28.5873 49.4405 29.2773 48.6735C29.5073 48.4435 29.6573 48.1365 29.8073 47.9065L40.6273 47.2935L46.9173 52.8925L42.4673 53.1225C41.3173 53.1225 40.3973 54.1965 40.4673 55.3465C40.4673 55.5005 40.4673 55.7305 40.5473 55.8835C40.8573 56.8045 41.6973 57.4175 42.6973 57.3405L51.3672 56.8045L53.5073 58.7215L51.7473 60.7155L52.5873 63.3235L49.8273 64.2435L42.0873 60.3325C41.0073 59.7955 39.7773 60.2555 39.2473 61.2525C39.0173 61.7895 38.9373 62.3265 39.1673 62.8635C39.3173 63.4005 39.7072 63.8605 40.2372 64.0905L44.2272 66.0845L36.1773 68.7695L26.5173 63.9375C26.5173 63.9375 26.5172 63.3235 26.3572 63.0165C25.6672 60.9455 23.3673 59.7955 21.2973 60.4855C19.2273 61.1755 18.0773 63.4765 18.7673 65.5475C19.4573 67.6185 21.7573 68.7695 23.8273 68.0785C24.1373 68.0025 24.4373 67.8485 24.6673 67.6955L30.5773 70.6865L22.5273 73.3715L8.7973 66.4685C8.2573 66.2385 7.71732 66.1615 7.18732 66.3145C6.64732 66.4685 6.18734 66.8515 5.95734 67.3885C5.72734 67.8485 5.64731 68.4625 5.80731 68.9995C5.95731 69.5365 6.33726 69.9965 6.87726 70.2265L16.8474 75.2885L1.96735 80.1975C0.897345 80.5815 0.27734 81.7315 0.58734 82.8825C0.96734 83.9555 2.11728 84.5695 3.27728 84.2625L3.34735 84.1865ZM58.1873 66.3915L56.7272 61.8665L59.8773 58.3385L64.5573 59.3355L66.0173 63.8605L62.8672 67.3885L58.1873 66.3915Z" fill="#FCFCFC"/>
</svg>
