<svg width="34" height="30" viewBox="0 0 34 30" fill="none" xmlns="http://www.w3.org/2000/svg">
<path d="M30.9091 6H30.6394C30.811 5.5305 30.9091 5.0265 30.9091 4.5C30.9091 2.0145 28.8335 0 26.2727 0C23.7119 0 21.6364 2.0145 21.6364 4.5C21.6364 5.0265 21.7345 5.5305 21.906 6H21.3667C21.5382 5.5305 21.6364 5.0265 21.6364 4.5C21.6364 2.0145 19.5608 0 17 0C14.4392 0 12.3636 2.0145 12.3636 4.5C12.3636 5.0265 12.4618 5.5305 12.6333 6H12.3636C11.2285 6 10.2417 6.609 9.70468 7.5H9.27273C4.17273 7.5 0 11.55 0 16.5V25.5H3.09091C3.09091 27.9855 5.16645 30 7.72727 30C10.2881 30 12.3636 27.9855 12.3636 25.5H18.5455C18.5455 27.9855 20.621 30 23.1818 30C25.7426 30 27.8182 27.9855 27.8182 25.5H30.9091C32.6091 25.5 34 24.15 34 22.5V9C34 7.35 32.6091 6 30.9091 6ZM24.7273 4.5C24.7273 3.67275 25.4204 3 26.2727 3C27.125 3 27.8182 3.67275 27.8182 4.5C27.8182 5.32725 27.125 6 26.2727 6C25.4204 6 24.7273 5.32725 24.7273 4.5ZM15.4545 4.5C15.4545 3.67275 16.1477 3 17 3C17.8523 3 18.5455 3.67275 18.5455 4.5C18.5455 5.32725 17.8523 6 17 6C16.1477 6 15.4545 5.32725 15.4545 4.5ZM7.72727 27C6.87495 27 6.18182 26.3272 6.18182 25.5C6.18182 24.6727 6.87495 24 7.72727 24C8.57959 24 9.27273 24.6727 9.27273 25.5C9.27273 26.3272 8.57959 27 7.72727 27ZM9.27273 10.5V15H3.29414C3.98341 12.4162 6.39818 10.5 9.27273 10.5ZM3.09091 22.5V18H9.27273V21.2617C8.789 21.0952 8.26973 21 7.72727 21C6.35568 21 5.12705 21.5812 4.27859 22.5H3.09091ZM23.1818 27C22.3295 27 21.6364 26.3272 21.6364 25.5C21.6364 24.6727 22.3295 24 23.1818 24C24.0341 24 24.7273 24.6727 24.7273 25.5C24.7273 26.3272 24.0341 27 23.1818 27ZM30.9091 22.5H26.6305C25.7813 21.5812 24.5534 21 23.1818 21C21.8102 21 20.5816 21.5812 19.7331 22.5H12.3636V9H18.6784L14.8147 12.75L17 14.871L21.6364 10.371L26.2727 14.871L28.458 12.75L24.5944 9H30.9091V22.5Z" fill="#9B2220"/>
</svg>
